<?xml version="1.0" encoding="UTF-8" standalone="no"?>
<!-- Created with Inkscape (http://www.inkscape.org/) -->

<svg
   width="171.62668mm"
   height="30.847134mm"
   viewBox="0 0 171.62668 30.847134"
   version="1.1"
   id="svg1"
   inkscape:version="1.4 (e7c3feb1, 2024-10-09)"
   xmlns:inkscape="http://www.inkscape.org/namespaces/inkscape"
   xmlns:sodipodi="http://sodipodi.sourceforge.net/DTD/sodipodi-0.dtd"
   xmlns="http://www.w3.org/2000/svg"
   xmlns:svg="http://www.w3.org/2000/svg">
  <sodipodi:namedview
     id="namedview1"
     pagecolor="#ffffff"
     bordercolor="#666666"
     borderopacity="1.0"
     inkscape:showpageshadow="2"
     inkscape:pageopacity="0.0"
     inkscape:pagecheckerboard="0"
     inkscape:deskcolor="#d1d1d1"
     inkscape:document-units="mm">
    <inkscape:page
       x="-2.4841568e-13"
       y="0"
       width="171.62666"
       height="30.847134"
       id="page2"
       margin="0"
       bleed="0" />
  </sodipodi:namedview>
  <defs
     id="defs1" />
  <g
     inkscape:label="Layer 1"
     inkscape:groupmode="layer"
     id="layer1"
     transform="translate(-139.1708,-209.28542)">
    <path
       style="font-weight:500;font-size:11.9944px;line-height:1.25;font-family:OPTIEngraversOldEnglish;-inkscape-font-specification:'OPTIEngraversOldEnglish Medium';text-align:center;text-anchor:middle;stroke-width:0.264583"
       d="m 147.07912,234.3475 c -0.0273,0.0803 -0.0547,0.16057 -0.0981,0.23538 -0.36436,0.75395 -1.39375,1.48743 -2.09195,1.61693 -0.79488,0.15033 -1.46908,-0.10623 -2.13022,-0.71674 -1.02867,-1.00451 -1.6972,-2.93465 -1.45599,-4.53695 -0.92935,1.83379 -0.601,3.28965 -0.0729,4.55371 0.40141,0.9521 1.33886,1.96137 2.56039,2.18935 1.12501,0.22198 2.25991,-0.2426 2.98899,-0.98878 1.04245,-1.08743 1.0998,-2.46564 0.80797,-3.76569 -0.11222,-0.0651 -0.0868,0.14962 -0.10869,0.21385 -0.0168,0.10181 -0.0335,0.20362 -0.0394,0.27331 -0.022,0.091 -0.0496,0.19815 -0.0826,0.32131 -0.0436,0.10163 -0.17415,0.37971 -0.17415,0.37971 l -2.26024,-4.59589 c -0.0529,-0.10764 -0.40229,-0.81801 -0.40229,-0.81801 0,0 0.23803,-0.30419 0.33561,-0.45911 0.10322,-0.19779 0.18491,-0.385 0.2015,-0.45999 0.0166,-0.075 0.0607,-0.25708 0.0997,-0.47675 0.006,-0.15016 0.0452,-0.34301 -0.0134,-0.40777 -0.4053,0.45329 -1.09414,0.79206 -1.62648,0.98703 l -2.09706,0.76399 c -0.85488,0.30013 -1.74858,0.79311 -2.03655,1.34909 -0.3423,0.6629 -0.20115,1.2217 -0.0593,1.67323 0.25673,-0.70102 1.04209,-1.03379 1.56384,-1.25028 l 2.37708,-0.92844 c 0.37654,-0.15845 0.74266,-0.36524 1.07156,-0.62055 l 0.0378,-0.0319 c 0,0 0.10057,0.2045 0.12175,0.24755 l 2.13848,4.34834 c 0.005,0.0108 0.13234,0.26908 0.13234,0.26908 0.0318,0.0646 0.3123,0.63503 0.3123,0.63503 z m -3.56011,-4.33088 -1.06821,1.74169 0.0953,0.19374 0.28196,-0.45947 1.67268,3.40118 c 0.13762,0.27984 0.1528,0.41941 0.11821,0.78395 0.0859,-0.0155 0.22144,-0.2292 0.2809,-0.29855 0.0379,-0.0588 0.12475,-0.20838 0.20627,-0.36877 0.47871,-1.01067 0.13852,-1.48496 -0.18437,-2.14152 z m 7.33142,-2.07981 -1.17916,2.21819 -0.0427,-0.12542 -0.93624,-2.22217 c -0.31573,-0.73911 -0.20605,-0.5516 -0.39168,-1.79495 l -0.0829,-0.18629 c -0.37118,0.61151 -0.83496,1.13295 -1.24154,1.57641 0.40688,0.26532 0.45684,0.34812 0.63238,0.74262 l 2.04681,4.86566 c 0.0866,0.22405 0.33519,0.6648 0.26341,0.82802 -0.16795,0.27165 -0.12417,0.13402 -0.24094,0.46167 -0.0693,0.22777 -0.007,0.27889 2e-4,0.47252 0.48941,-0.3753 0.89865,-0.2817 1.53696,0.0907 0.24697,-0.59563 0.50379,-0.93308 0.81662,-1.3217 -0.1121,-0.13392 -0.33861,-0.1119 -0.52983,-0.1581 -0.0755,0.007 -0.46036,-0.0315 -0.50179,-0.0656 l -1.23734,-2.9284 c -0.01,-0.0219 0.50983,-1.06705 0.50983,-1.06705 0,0 0.33006,0.0632 0.57974,0.12276 0.24481,0.0486 0.29231,0.0669 0.44211,0.079 0,0 0.0439,0.0986 0.11215,0.25205 l 0.13653,0.30684 c 0,0 0.1219,0.27396 0.15116,0.33971 l 0.91668,2.06021 c 0.0341,0.0767 0.29503,0.72206 0.30237,0.79756 0.0731,0.16438 0.003,0.30081 -0.0497,0.50787 -0.006,0.13396 0.0318,0.24843 0.11586,0.40793 0.48017,0.78409 1.16226,1.01885 0.95811,2.09429 0.46383,-0.4033 0.52944,-0.78695 0.34535,-1.23017 -0.11214,-0.25205 -0.26079,-0.40909 -0.47518,-0.53687 -0.29357,-0.1582 -0.51279,-0.17881 -0.70165,-0.39672 -0.15839,-0.17896 -0.15603,-0.35068 -0.0952,-0.50902 0.15206,-0.39587 0.7487,-0.64821 1.19077,-0.68737 -0.42889,-0.49183 -0.4496,-0.50887 -0.68245,-1.06167 l -1.21055,-2.9272 c 0.17398,-0.40562 0.21168,-0.52742 0.16398,-1.01819 -0.21058,0.26436 -0.32624,0.32896 -0.45167,0.37164 -0.43472,0.11466 -0.8623,-0.1677 -1.1705,-0.35878 z m 4.99199,-2.24228 c -0.73929,1.17067 -1.36047,1.48957 -2.36212,1.86043 0.44102,0.28612 0.5273,0.49705 0.69532,0.90781 l 0.80379,1.96496 c 0.0454,0.11102 0.35825,0.81243 0.32141,0.94413 -0.0343,0.16955 -0.0838,0.11202 -0.14937,0.26845 -0.0197,0.0469 -0.059,0.14078 -0.0802,0.27905 -0.0212,0.13826 -0.002,0.24725 0.0419,0.51419 0.5359,-0.40064 1.18786,-0.4859 1.91499,-0.0706 l 0.86646,-1.71514 -0.0782,-0.0328 c -0.11758,0.061 -0.17158,0.27753 -0.26897,0.35625 -0.57171,-0.19379 -0.34161,-0.10648 -0.91232,-0.17109 -0.16249,0.0146 -0.19579,0.0282 -0.26997,-0.058 l -0.0908,-0.22203 -0.19073,-0.46626 1.74703,-2.76218 c -0.53438,-0.26089 -1.61473,-1.12784 -1.98812,-1.59713 z m 0.0796,3.93292 -0.63577,-1.55421 c -0.0273,-0.0666 -0.35724,-0.96836 -0.3421,-1.02638 0.0151,-0.058 0.15896,-0.18166 0.18116,-0.19074 0.1201,-0.0232 1.00315,0.67822 1.07934,0.73776 l 0.54244,0.43903 c 0.0202,0.0177 0.13473,0.13927 0.15289,0.18368 -0.39462,0.80938 -0.37948,0.75135 -0.88865,1.43912 z m 7.45672,-7.92033 c -0.18602,-0.53216 -0.45516,-1.3021 -1.11112,-1.54293 -0.43862,-0.16432 -0.87339,-0.0632 -1.14403,0.10767 -0.40991,0.24494 -0.628,0.63882 -0.6814,1.14032 -0.0307,0.23943 0.0106,0.46643 0.0824,0.70817 0.0435,0.12455 0.0905,0.22249 0.14478,0.30515 0.0198,0.0566 0.19294,0.2248 0.26538,0.2503 -0.0287,-0.40926 -0.0173,-0.66738 0.23302,-0.93276 0.14609,-0.1273 0.34649,-0.17194 0.51402,-0.12885 0.36563,0.1009 0.69865,1.08992 0.77836,1.35429 l 0.28892,0.82655 c 0.008,0.0226 0.1482,0.27856 0.04,0.40531 -0.36232,0.12665 -0.61537,0.2024 -0.76212,0.54594 -0.10991,0.26713 -0.037,0.58472 0.0421,0.81117 0.15381,0.40365 0.14875,0.31648 0.49845,0.62624 l 0.0108,-0.0419 -0.0198,-0.0566 c 0,0 -0.0158,-0.0453 -0.013,-0.10981 -0.0317,-0.0906 -0.0175,-0.15907 0.0533,-0.24735 0.0555,-0.0956 0.1495,-0.15391 0.35726,-0.21383 0.1019,-0.0356 0.2259,-0.11708 0.34474,-0.0316 l 0.63722,1.82294 c -0.37429,0.34684 -0.54358,0.44413 -0.67173,1.02259 -0.11002,0.52129 0.0647,1.05741 0.48507,1.53305 -0.0428,-0.59493 0.13506,-0.88581 0.65765,-1.20826 0,0 0.095,0.27175 0.12666,0.36233 l 0.40536,1.26867 c 0.1238,0.42686 0.22836,0.83502 0.31819,1.27374 0.1517,-0.002 0.16588,-0.0707 0.24062,-0.14764 l 0.13938,-0.32826 c 0.19203,-0.35936 0.25887,-0.45896 0.35341,-0.4793 0.0566,-0.0198 0.65144,0.19158 0.68937,0.19103 0.0843,0.0595 0.27054,0.0833 0.34694,0.12014 0.17094,0.0165 0.37189,0.01 0.33627,-0.0921 l -0.80345,-2.29848 0.55866,0.0715 c 0.37635,-1.2497 1.29633,-1.63482 2.08946,-1.87395 -0.29363,-0.36748 -0.28682,-0.42068 -0.5045,-1.04342 l -1.66233,-4.75548 -0.091,-0.26042 c -0.0238,-0.0679 -0.0514,-0.1472 -0.0792,-0.22645 l -0.0831,-0.23778 c -0.0396,-0.11322 0.017,-0.13301 0.10256,-0.25185 0.23797,-0.59143 0.24764,-0.70916 0.21442,-1.16768 -0.0611,-0.0295 -0.0798,-0.0102 -0.12059,0.0549 -0.0374,0.0385 -0.0747,0.077 -0.11212,0.11543 -0.12004,0.0928 -0.19534,0.13181 -0.25591,0.14028 -0.37024,0.10401 -0.75225,-0.0801 -1.14273,-0.32479 -0.42825,0.81041 -1.03767,1.68416 -1.50264,2.31682 l -0.13061,-0.37366 -0.17415,-0.49819 c -0.0198,-0.0566 -0.0356,-0.1019 -0.0594,-0.16984 l -0.19394,-0.55481 -0.19248,0.0673 c 0,0 0.0435,0.12455 0.0633,0.18116 l 0.18206,0.52084 0.13061,0.37365 c 0.0594,0.16984 0.22165,0.63406 0.22165,0.63406 0,0 -0.14499,0.20316 -0.40155,0.55967 z m 0.31693,0.14333 0.23106,-0.28406 3.00802,8.60515 c 0.0277,0.0793 0.12951,0.29779 0.0814,0.37815 -0.53537,-0.29569 -0.74018,-0.55445 -0.91037,-1.04132 l -2.38661,-6.82751 -0.1979,-0.56613 z m 0.98612,1.29438 c -0.0198,-0.0566 -0.0752,-0.21513 -0.0752,-0.21513 0.6996,0.11122 1.60385,-0.57334 1.60385,-0.57334 l 0.0317,0.0906 0.84304,2.4117 -0.0742,0.11488 c -0.57174,0.0728 -0.92725,0.14625 -1.42665,0.4987 -0.10641,-0.0136 -0.14258,-0.15346 -0.1782,-0.25536 z m 2.03697,2.0833 c 0.0566,-0.0198 0.33286,-0.0655 0.44038,0.024 0.0888,0.10872 0.10521,0.19193 0.14478,0.30516 l 0.47771,1.54834 -0.20381,0.0712 c -0.1528,-0.0736 -0.30165,-0.13598 -0.45841,-0.22094 -0.0419,-0.0108 -0.15621,-0.047 -0.40356,-0.10035 -0.0951,-0.0176 -0.29659,-0.0488 -0.41036,-0.0471 -0.10246,-0.002 -0.35321,-0.029 -0.35321,-0.029 l -0.0792,-0.22645 c -0.0871,-0.2491 -0.17019,-0.48687 -0.2533,-0.72465 0.0278,-0.1749 0.22028,-0.24218 0.31427,-0.30045 0.094,-0.0583 0.24459,-0.13632 0.38046,-0.18382 0.0113,-0.004 0.16588,-0.0707 0.40421,-0.11588 z m -2.18792,-2.55148 -0.35225,-1.00771 c -0.0475,-0.13587 -0.099,-0.28306 -0.099,-0.28306 l 0.24524,-0.35256 c 0,0 0.28602,-0.41763 0.5052,-0.73567 0.0187,-0.0192 0.24845,0.12916 0.28297,0.15521 0.0956,0.0555 0.18677,0.0618 0.2745,0.0946 0.31297,0.13202 0.23602,0.0573 0.33837,0.31373 l 0.31268,0.89448 0.0871,0.2491 c -0.0352,0.19018 -0.19424,0.20766 -0.31032,0.31177 -0.064,0.0351 -0.18402,0.12786 -0.34253,0.18327 -0.19985,0.0826 -0.78918,0.25045 -0.94198,0.1768 z m 6.21274,-2.23748 c -0.83573,1.10388 -1.48168,1.36904 -2.51114,1.65377 0.41521,0.32243 0.48333,0.53991 0.61597,0.96341 l 0.63455,2.02596 c 0.0359,0.11446 0.28819,0.83984 0.24033,0.96796 -0.0486,0.16603 -0.093,0.10452 -0.17156,0.25483 -0.0236,0.0451 -0.0708,0.13528 -0.10358,0.27125 -0.0328,0.13598 -0.0234,0.24616 -0.002,0.5159 0.5679,-0.35384 1.22473,-0.3836 1.91409,0.0918 l 1.00855,-1.63563 -0.0752,-0.0393 c -0.12232,0.0509 -0.19445,0.26201 -0.29816,0.3322 -0.55325,-0.24149 -0.33137,-0.13502 -0.89456,-0.24771 -0.16314,8.2e-4 -0.19748,0.0116 -0.26409,-0.0807 l -0.0717,-0.22892 -0.15057,-0.48074 1.97461,-2.60436 c -0.51037,-0.3052 -1.51344,-1.26049 -1.84577,-1.75972 z m -0.25362,3.92554 -0.5019,-1.60246 c -0.0215,-0.0687 -0.27398,-0.99512 -0.25398,-1.05166 0.02,-0.0565 0.17377,-0.16754 0.19666,-0.17471 0.12163,-0.013 0.94212,0.76071 1.013,0.82649 l 0.50333,0.48337 c 0.0186,0.0193 0.12245,0.15018 0.13679,0.19597 -0.46173,0.77306 -0.44173,0.71652 -1.0073,1.35872 z m 3.30343,-4.85485 c -0.19436,0.55245 -0.47739,1.05495 -0.80799,1.52093 0.061,-0.005 0.38903,-0.034 0.44492,-0.0122 0.46564,0.10653 0.64757,1.11427 0.66693,1.18358 l 0.52643,2.10705 c 0.0161,0.0578 0.0323,0.11552 0.0452,0.16173 -0.10822,0.19213 -0.1845,0.27571 -0.25942,0.40873 -0.0365,0.0476 -0.15443,0.20504 -0.17855,0.38613 0.6413,-0.0671 0.99703,-0.0419 1.66941,0.49252 0.34504,-0.68173 0.34691,-0.71961 0.85215,-1.18457 -0.13437,-0.12435 -0.23783,-0.18262 -0.38104,-0.20488 -0.12656,-0.0518 -0.21711,-0.0639 -0.3751,-0.0945 -0.17786,-0.0126 -0.1709,-0.0768 -0.19994,-0.18076 l -0.0742,-0.26569 c -0.042,-0.15018 -0.10974,-0.39277 -0.14847,-0.5314 l -0.25175,-0.90105 c -0.01,-0.0347 -0.25175,-0.90106 -0.24665,-0.92739 0.0102,-0.0527 0.36203,-0.48721 0.37358,-0.49044 0.19605,-0.27894 0.17617,-0.26094 0.35047,-0.48399 l 0.21083,-0.27061 0.12979,0.0634 0.1709,0.0768 0.27113,0.12351 0.80043,2.86489 c 0.22269,0.79709 0.31051,1.55714 1.44515,1.65111 0.19384,-0.46514 0.43712,-0.93163 0.70163,-1.36669 -0.0739,-0.0416 -0.18296,0.0138 -0.26382,0.0363 -0.11043,0.006 -0.21253,-0.003 -0.2832,-0.033 -0.42402,-0.18042 -0.59728,-0.97887 -0.64892,-1.1637 l -0.4454,-1.59417 -0.21625,-0.77399 c 0.009,-0.1021 0.17856,-0.38613 0.22018,-0.46003 0.0301,-0.0707 0.1337,-0.32379 0.0982,-0.45087 -0.54991,0.21591 -0.82885,0.0199 -1.19358,-0.43865 l -1.71126,2.43335 -0.0878,0.0868 c 0,0 -0.0645,-0.23104 -0.0807,-0.2888 l -0.0678,-0.24259 c -0.0387,-0.13863 -0.11348,-0.317 -0.19332,-0.46905 -0.22797,-0.45936 -0.30509,-0.51254 -0.86213,-0.76788 z m 6.1686,-1.65723 c -0.21316,0.54547 -0.51323,1.03799 -0.8596,1.49237 0.0611,-0.002 0.38997,-0.0206 0.44508,0.003 0.46172,0.12241 0.60903,1.13579 0.62601,1.20572 l 0.45396,2.12385 c 0.0141,0.0583 0.0283,0.11655 0.0396,0.16318 -0.11473,0.18831 -0.19383,0.26923 -0.27326,0.3996 -0.0381,0.0463 -0.16136,0.19964 -0.19167,0.3798 0.64322,-0.0451 0.99788,-0.008 1.65157,0.5494 0.36818,-0.66952 0.37135,-0.70731 0.89221,-1.1547 -0.13004,-0.12888 -0.23144,-0.19066 -0.3738,-0.21781 -0.12471,-0.0561 -0.21479,-0.0713 -0.37164,-0.10725 -0.17733,-0.0187 -0.16817,-0.0826 -0.19364,-0.1875 l -0.0651,-0.26808 c -0.0368,-0.15152 -0.0962,-0.3963 -0.13018,-0.53616 l -0.22075,-0.90915 c -0.008,-0.035 -0.22074,-0.90915 -0.21474,-0.93529 0.012,-0.0523 0.37849,-0.47453 0.39015,-0.47736 0.20549,-0.27207 0.185,-0.25475 0.36684,-0.4717 l 0.21997,-0.26324 0.12755,0.0678 0.16817,0.0826 0.26674,0.13272 0.70185,2.89063 c 0.19527,0.80424 0.25701,1.56686 1.38776,1.69962 0.20966,-0.45822 0.46877,-0.9161 0.74802,-1.34185 -0.0724,-0.0441 -0.18332,0.007 -0.26491,0.0273 -0.11056,0.002 -0.2123,-0.0102 -0.2819,-0.0426 -0.41759,-0.19484 -0.56341,-0.99875 -0.60869,-1.18524 l -0.39055,-1.60847 -0.18961,-0.78093 c 0.0123,-0.10174 0.19167,-0.3798 0.2358,-0.45223 0.0325,-0.0696 0.14471,-0.31902 0.11358,-0.44724 -0.55698,0.19695 -0.82905,-0.009 -1.17786,-0.47927 l -1.79359,2.37332 -0.0908,0.0837 c 0,0 -0.0566,-0.23311 -0.0708,-0.29139 l -0.0594,-0.24477 c -0.034,-0.13987 -0.10255,-0.3207 -0.17714,-0.47539 -0.21211,-0.46691 -0.28737,-0.52269 -0.83533,-0.79696 z m 7.84888,-1.62505 c -0.72796,0.79104 -1.8459,1.18627 -2.64277,1.24408 0,0 -0.0136,0.0519 -0.0136,0.0519 0,0 0.0359,0.0537 0.0359,0.0537 0.0711,0.0463 0.0544,0.0253 0.10196,0.0765 l 0.0958,0.16366 c 0.0266,0.0679 0.0581,0.15936 0.10024,0.35887 l 0.0495,0.23472 0.0446,0.21125 0.11143,0.52812 c 0.14609,0.69242 0.1912,0.73194 0.0939,1.31637 0.097,0.0531 0.0562,-0.0241 0.16925,-0.0112 l 0.64548,-0.13619 c 0.0587,-0.0124 0.14331,-0.018 0.20942,0.005 l -0.14256,0.31202 c -0.57282,1.00347 -1.03333,1.72582 -0.82663,2.58933 0.0117,-0.002 0.0544,0.0253 0.0587,-0.0124 0.0265,-0.16495 -0.015,-0.30331 0.0406,-0.38858 0.10865,-0.18228 0.31677,-0.29975 0.41992,-0.33377 0.35639,-0.11197 0.78954,0.13988 1.18996,0.41089 0.86062,-1.15 1.48327,-1.22008 2.68476,-1.27745 -0.15762,-0.22417 -0.19972,-0.42368 -0.26098,-0.65592 l -0.057,-0.26993 c -0.0198,-0.0939 -0.0446,-0.21125 -0.0594,-0.28167 l -0.29465,-1.39653 c -0.0427,-0.26067 -0.0298,-0.37372 0.0127,-0.57883 -0.0735,-0.058 -0.2471,-0.009 -0.31752,0.006 l -1.05624,0.22285 0.18208,-0.35713 c 0.50488,-0.97688 0.80302,-1.48109 0.72358,-2.32242 -0.12727,-0.0222 -0.16485,0.2064 -0.17841,0.2583 -0.0673,0.0877 -0.13955,0.15202 -0.24022,0.19778 -0.3088,0.16322 -0.53619,0.0151 -0.87976,-0.21891 z m -1.04785,1.01789 c 0.0235,-0.005 0.17292,-0.11003 0.25507,-0.12737 0.43874,0.33648 0.68714,0.46795 1.06452,0.33929 0.18282,-0.0631 0.32053,-0.1657 0.40204,-0.24419 0.0556,-0.0853 0.11855,-0.13534 0.17658,-0.20887 0.009,-0.0142 0.0556,-0.0853 0.0833,-0.12791 l 0.037,-0.0568 0.0587,-0.0124 c -0.1992,0.74076 -0.60728,1.30494 -0.88012,1.75478 l -0.7087,1.05665 -0.30826,-0.008 c -0.0198,-0.0939 -0.0248,-0.11736 -0.0446,-0.21124 l -0.37153,-1.99331 c -0.0173,-0.0822 0.16549,-0.14524 0.23591,-0.1601 z m -0.30501,4.53869 c -0.28963,0.19596 -0.42046,0.50551 -0.38718,0.31461 0.007,-0.0259 0.0296,-0.0921 0.0296,-0.0921 0,0 0.22159,-0.40225 0.35801,-0.62717 0.2568,-0.40968 0.69944,-1.04244 0.69944,-1.04244 l 0.50865,-0.84283 c 0.0901,-0.15386 0.13459,-0.1755 0.15806,-0.18045 0.0821,-0.0173 0.49043,-0.11574 0.5967,-0.0769 0.0643,0.0722 0.06,0.10993 0.0922,0.2625 l 0.44819,2.12422 c 0,0 -0.19951,0.0421 -0.27671,0.0829 -0.0587,0.0124 -0.2316,0.12241 -0.29028,0.13479 -0.61608,-0.42164 -0.88299,-0.52469 -1.42898,-0.32368 -0.10315,0.034 -0.31375,0.13975 -0.50767,0.26648 z m 4.69532,-6.2469 c -0.42805,0.86953 -0.48707,0.88018 -0.94905,1.42675 0.29181,-0.004 0.39263,0.0144 0.51165,0.0661 0.31525,0.12591 0.43738,1.13986 0.44164,1.16347 l 0.4326,2.39613 c -0.35771,0.38148 -0.42214,0.42967 -0.54199,1.04854 0.57986,-0.43378 1.10741,-0.21213 1.70971,0.28855 0.0429,-0.0321 0.22345,-0.24755 0.23312,-0.26148 l 1.35153,-1.56035 0.0526,-0.0461 c 0.0897,0.36165 0.15769,0.87346 0.33851,1.26741 0.15836,0.33706 0.44214,0.76117 0.49426,1.11741 0.0649,0.42706 -0.018,0.71018 -0.41543,1.07444 -0.32329,0.30214 -0.6592,0.39935 -0.94986,0.34213 -0.44722,-0.11427 -1.03952,-0.89708 -1.55969,-1.01037 -0.26706,-0.0615 -0.52247,0.009 -0.68789,0.17295 -0.40493,0.39001 -0.341,0.74411 -0.26002,1.19265 0,0 0.0515,0.0151 0.0515,0.0151 0,0 0.0429,-0.0321 0.0429,-0.0321 l 0.003,-0.0494 0.0248,-0.0654 c 0.0323,-0.0911 0.0323,-0.0911 0.10214,-0.17689 0.10524,-0.0921 0.19754,-0.12098 0.34771,-0.0993 0.21132,0.0228 0.27771,0.1205 0.4782,0.21837 0.17476,0.0903 0.31739,0.13771 0.43214,0.16575 0.24345,0.0657 0.4205,0.0338 0.82396,-0.0269 0.75542,-0.13639 1.64742,-0.52901 2.12383,-1.46821 0.35166,-0.68509 0.37412,-1.50577 0.0561,-1.98463 l -0.19279,-0.25772 c 0,0 -0.13212,-0.73182 -0.16622,-0.92067 l -0.44968,-2.49055 c -0.0447,-0.24787 -0.0639,-0.3541 -0.0628,-0.41525 -0.0384,-0.21247 0.001,-0.19525 0.21182,-0.37952 0.22132,-0.25934 0.30738,-0.45771 0.38083,-0.861 -0.17394,0.11673 -0.28132,0.19705 -0.45083,0.20328 -0.43132,0.0413 -0.6928,-0.19181 -1.03461,-0.53232 -0.36427,0.48017 -0.73068,0.94854 -1.12282,1.40937 l 0.0289,0.0923 0.20722,-0.13491 c 0.12983,-0.0234 0.2359,0.0915 0.35705,0.15492 0.0515,0.0151 0.25623,0.13656 0.28837,0.17952 l 0.38998,2.16005 c 0.0575,0.3187 0.15557,0.86166 0.12868,0.91527 l -0.75314,0.89165 -0.0451,0.0203 c -0.50772,0.22574 -0.47378,-0.32887 -0.81362,-0.52346 l -0.51785,-2.86827 c -0.13115,-0.65887 -0.14524,-1.412 -1.07165,-1.8176 z m 6.3805,-4.10542 c -0.11764,-0.0547 -0.16233,0.0492 -0.23803,0.1094 -0.0201,0.0274 -0.19426,0.23617 -0.19426,0.23617 -0.20977,0.21427 -0.25355,0.24527 -0.4405,0.3711 -0.4022,0.30453 -0.80255,0.46315 -0.88189,0.49962 0.39663,0.44871 0.4176,0.50617 0.50872,1.09892 l 0.70615,4.98827 c 0.007,0.0474 0.12393,0.80615 0.10751,0.85722 -0.0274,0.13769 -0.22072,0.3009 -0.29916,0.42218 -0.072,0.0839 -0.19793,0.37022 -0.18335,0.46506 0.72044,-0.20784 1.0004,-0.20233 1.80463,0.4507 0.32926,-0.46322 0.69772,-0.90819 1.09719,-1.30939 l -0.0657,-0.11126 c -0.16871,0.0866 -0.1441,0.16778 -0.34564,0.19876 -0.31458,-0.23075 -0.4085,-0.28913 -0.61641,-0.37852 -0.0766,-0.0246 -0.16962,0.002 -0.26901,-0.0921 -0.0173,-0.0337 -0.0447,-0.21157 -0.0501,-0.24714 l -0.0765,-0.49791 -0.76353,-5.59835 c -0.0856,-0.71495 -0.0309,-0.83258 0.19989,-1.46269 z m 3.39091,2.55425 -0.55847,0.55435 c -0.0758,0.0701 -0.16341,0.14161 -0.23766,0.22356 l -0.0119,0.002 -0.36689,0.34873 c -0.25108,0.21316 -0.16643,0.11781 -0.14382,0.2963 0.0536,0.0416 0.32984,-0.25941 0.37443,-0.28924 0.13089,-0.0166 0.29177,0.10812 0.41695,0.23734 0.0701,0.0758 0.0717,0.18436 0.14645,0.39252 0.0643,0.22157 0.0977,0.58005 0.12329,0.78234 l 0.26078,2.05858 c 0.0861,0.77496 0.15257,1.39523 1.05034,1.80138 0.84944,-0.92974 1.8577,-1.17838 2.98679,-1.23678 -0.23426,-0.41766 -0.20325,-0.55458 -0.25299,-0.94726 l -0.25476,-2.01098 c -0.001,-0.0119 -0.0713,-0.84938 -0.0713,-0.84938 0.0444,-0.12653 0.24505,-0.26075 0.34746,-0.40672 0.0312,-0.0402 0.21672,-0.29344 0.19863,-0.43623 -0.13978,0.0419 -0.27503,0.11947 -0.43424,0.10337 -0.45384,-0.0513 -0.72095,-0.53736 -0.92086,-0.87475 l -1.42449,1.35322 0.0136,0.10709 c 0.0595,-0.008 0.34325,-0.24902 0.39521,-0.31605 l 0.7119,0.46597 0.38568,3.80793 c -0.052,0.067 -0.20515,0.0985 -0.26314,0.11797 l -0.27804,0.0957 c -0.32112,0.1374 -0.26297,0.21466 -0.61591,0.005 -0.51081,-0.31011 -0.50773,-1.14472 -0.5424,-1.41841 l -0.25674,-2.31298 c -0.0648,-0.51167 -0.1194,-1.13345 -0.77784,-1.65455 z m 7.78612,0.82705 c 0.0119,-0.001 0.24441,3.09729 0.24441,3.09729 0.0293,0.31048 0.032,0.46684 -0.20517,0.63382 -0.1906,0.15054 -0.65903,0.0382 -0.88525,-0.0609 -0.50472,-0.24147 -0.82788,-0.72899 -0.87977,-1.27829 -0.0196,-0.33548 -0.006,-0.57769 0.28576,-1.18358 0.11941,-0.0113 0.087,0.0279 0.25462,0.14461 0.11762,0.0973 0.18748,0.19915 0.21475,0.23272 l 0.45338,0.46317 0.0865,-0.10455 -1.80948,-1.93742 -0.0795,-0.0768 -0.14941,-0.17865 0.0455,-0.0284 c 0.62301,0.21824 1.20992,0.0544 1.75941,-0.25055 0.21136,0.1969 0.6372,0.241 0.66428,0.52759 z m 1.29084,2.05871 -0.22901,-2.42407 c -0.0214,-0.22689 0.10475,-0.16652 0.25501,-0.36143 0.0962,-0.12957 0.20206,-0.28414 0.19078,-0.40355 -0.66824,0.19565 -0.82395,0.0778 -1.11626,-0.59332 -0.0746,0.10342 -0.38025,0.56602 -0.69317,0.82449 -0.26741,0.23008 -0.4864,0.3351 -0.67115,0.29232 -0.41842,-0.093 -0.6341,-0.59068 -0.79817,-0.92457 -0.47691,0.56311 -0.62199,0.68525 -1.07933,0.94531 0.0124,0.13136 0.0419,0.18881 0.0845,0.25707 0.0665,0.066 0.0687,0.0899 0.10906,0.13427 0.0545,0.0671 0.0523,0.0433 0.10681,0.11039 l 0.17442,0.18833 c 0.15909,0.15364 0.30623,0.30841 0.45338,0.46318 l 0.32382,0.36699 0.007,0.0716 c -0.83919,0.68167 -1.2327,1.48991 -1.1071,2.30934 0.14093,0.85413 0.93205,1.32154 1.8723,1.5821 l 1.06759,-1.1972 0.0836,-0.008 c 0.3333,0.59499 0.4435,0.7412 1.13298,1.02545 l 0.78955,-1.20708 c -0.31272,0.005 -0.39744,0.001 -0.49974,-0.0612 -0.41888,-0.22548 -0.42845,-1.09201 -0.45666,-1.39055 z m 2.39566,-4.15954 c -0.30554,0.49963 -0.68735,0.93187 -1.10805,1.31846 0.0606,0.008 0.38754,0.0481 0.43765,0.081 0.43309,0.2015 0.40036,1.22501 0.40481,1.29683 l 0.0744,2.17055 c 0.004,0.0598 0.007,0.11971 0.0104,0.1676 -0.14599,0.16527 -0.23805,0.23106 -0.33912,0.34547 -0.0457,0.0389 -0.19387,0.16824 -0.25532,0.34029 0.64117,0.0684 0.98378,0.16739 1.5296,0.83058 0.47992,-0.59455 0.48966,-0.6312 1.08093,-0.98029 -0.10542,-0.14969 -0.19441,-0.2283 -0.3298,-0.28 -0.11294,-0.0771 -0.19896,-0.10785 -0.34707,-0.17078 -0.17131,-0.0495 -0.15107,-0.11081 -0.15775,-0.21855 l -0.0171,-0.27535 c -0.01,-0.15563 -0.0252,-0.40703 -0.0341,-0.55068 l -0.0579,-0.93378 c -0.002,-0.0359 -0.0578,-0.93377 -0.0474,-0.95846 0.021,-0.0494 0.45587,-0.40078 0.46784,-0.40152 0.25002,-0.2318 0.22682,-0.21835 0.44389,-0.40004 l 0.26274,-0.22057 0.11368,0.0891 0.15107,0.11081 0.23932,0.17745 0.18393,2.96892 c 0.0512,0.82603 -0.0218,1.58765 1.06812,1.9167 0.28678,-0.41434 0.62219,-0.81967 0.9718,-1.18984 -0.0636,-0.0562 -0.1818,-0.0248 -0.2656,-0.0196 -0.10923,-0.0173 -0.20722,-0.0472 -0.27005,-0.0914 -0.37694,-0.26507 -0.37949,-1.08209 -0.39135,-1.27364 l -0.10235,-1.65206 -0.0497,-0.80208 c 0.03,-0.098 0.25532,-0.34029 0.31147,-0.40386 0.0442,-0.0628 0.19843,-0.28869 0.19027,-0.42037 -0.58289,0.0962 -0.8147,-0.15383 -1.07553,-0.67845 l -2.18208,2.02191 -0.10403,0.0665 c 0,0 -0.0148,-0.23943 -0.0185,-0.29928 l -0.0156,-0.2514 c -0.009,-0.14366 -0.0447,-0.33372 -0.091,-0.4991 -0.12693,-0.49686 -0.19123,-0.56498 -0.68259,-0.93112 z m 6.65937,-0.1564 c -0.0959,0.003 -0.20985,0.17543 -0.26809,0.22549 -0.12721,0.13651 -0.19701,0.19898 -0.27839,0.27386 l -0.29164,0.23832 c -0.11522,0.13608 -0.28092,0.20194 -0.37386,0.28923 -0.11691,0.0881 -0.27062,0.15356 -0.26555,0.29741 l 0.33098,-0.1437 c 0.11127,0.0921 0.18615,0.17347 0.285,0.25399 0.10915,0.0322 0.20801,0.11269 0.25891,0.1949 l 0.0947,2.68508 c 0.0193,0.88746 -0.0603,1.69439 1.09414,2.09775 0.37739,-0.52939 0.32042,-0.44337 0.94488,-1.11349 -0.28768,0.0101 -0.37244,-0.0109 -0.48243,-0.067 -0.54011,-0.34101 -0.40131,-1.51009 -0.40427,-1.59399 l -0.0752,-2.13368 c 0.0322,-0.10915 0.15034,-0.16133 0.22057,-0.21181 0.0814,-0.0749 0.13919,-0.13693 0.21972,-0.23578 0.22959,-0.29615 0.13581,-0.23283 0.19716,-0.53504 -0.58017,0.22449 -0.78987,0.0639 -1.20657,-0.52154 z m 0.0377,-1.99363 c -0.10619,0.0518 -0.12805,0.11253 -0.22183,0.17584 l -0.82825,0.67731 0.0873,0.0929 c 0.0719,-0.003 0.15541,-0.0175 0.2654,0.0386 0.0856,0.045 0.24566,0.15936 0.27006,0.1705 0.17162,0.10197 0.32872,0.13243 0.50768,0.10212 0.35876,-0.0367 0.59047,-0.27287 0.83939,-0.70171 -0.50261,0.0417 -0.60062,-0.0148 -0.91974,-0.55565 z m 5.0398,3.51159 c 0.012,-1.3e-4 -0.0152,3.10688 -0.0152,3.10688 0.003,0.31184 -0.007,0.46788 -0.2574,0.61447 -0.2025,0.13408 -0.65991,-0.017 -0.87707,-0.13468 -0.48279,-0.28278 -0.76409,-0.7956 -0.76992,-1.34731 0.008,-0.33595 0.0419,-0.57621 0.38364,-1.15558 0.11993,-10e-4 0.0843,0.0351 0.24164,0.16538 0.10909,0.1068 0.1702,0.21411 0.19456,0.24984 l 0.41311,0.49943 0.0949,-0.097 -1.64132,-2.0818 -0.0729,-0.0832 -0.13396,-0.1905 0.0477,-0.0245 c 0.6026,0.26952 1.20115,0.15525 1.77419,-0.1027 0.19418,0.21386 0.61484,0.29338 0.61788,0.58123 z m 1.11436,2.15934 -0.0257,-2.43473 c -0.002,-0.22788 0.11829,-0.15719 0.2843,-0.33887 0.10668,-0.12107 0.22509,-0.26627 0.22383,-0.3862 -0.68225,0.13915 -0.82757,0.009 -1.0628,-0.68449 -0.0829,0.0968 -0.4262,0.53228 -0.75962,0.76371 -0.28569,0.20693 -0.51269,0.2933 -0.69323,0.23523 -0.40918,-0.12762 -0.58254,-0.64158 -0.71814,-0.98801 -0.52228,0.52131 -0.67706,0.6309 -1.15453,0.85185 0.001,0.13193 0.026,0.19165 0.0628,0.26323 0.0607,0.0713 0.061,0.0953 0.0975,0.14291 0.0487,0.0715 0.0485,0.0475 0.0972,0.11893 l 0.15808,0.20224 c 0.1457,0.1664 0.2794,0.33291 0.4131,0.49943 l 0.29203,0.39276 7.6e-4,0.072 c -0.89319,0.60919 -1.35284,1.38173 -1.29612,2.20879 0.0691,0.86291 0.8184,1.39477 1.7336,1.73297 l 1.16385,-1.10385 0.084,-8.9e-4 c 0.28245,0.62076 0.38004,0.77567 1.04337,1.11652 l 0.88762,-1.13691 c -0.31209,-0.0207 -0.39618,-0.0318 -0.49289,-0.10275 -0.39858,-0.25968 -0.33574,-1.12399 -0.3389,-1.42383 z m 12.07562,-5.9827 c -0.97325,-0.97222 -2.3983,-1.05384 -3.12588,-0.90925 -0.81262,0.16445 -1.65477,0.68772 -2.02943,1.474 -0.19843,0.37459 -0.27619,0.98323 -0.0673,1.37771 0.37338,0.71475 1.70872,0.91207 2.20896,0.99656 l 0.35472,0.11339 -0.34863,0.49935 c -0.14376,-0.007 -0.28577,-0.05 -0.42953,-0.057 l -0.39242,-0.0792 c -0.78425,-0.1704 -1.83791,-0.23388 -1.91644,-1.33051 l -0.0605,0.009 -0.0508,0.0576 -0.10286,0.13908 c -0.0257,0.0348 -0.0772,0.10431 -0.13092,0.22177 -0.21041,0.374 -0.26012,0.89995 -0.05,1.27048 0.36198,0.70218 1.78235,0.87964 2.0801,0.93021 l 0.26005,0.0848 c -0.34016,0.57181 -0.65402,1.09687 -1.31148,1.28091 -0.0438,-0.0862 0.0327,-0.17854 0.0716,-0.23668 l 0.071,-0.2247 c 0.031,-0.14259 -0.009,-0.30067 -0.0867,-0.43655 -0.123,-0.18614 -0.28721,-0.26621 -0.45552,-0.26242 -0.20425,0.002 -0.3784,0.12561 -0.48361,0.31261 -0.13092,0.22177 -0.12335,0.55839 -0.0129,0.75592 0.14228,0.28315 0.42571,0.38106 0.66472,0.40474 0.83861,0.041 1.40409,-0.96415 1.84126,-1.55524 0.46488,0.0707 1.73009,0.22862 2.16836,0.59828 0.31235,0.24342 0.30006,0.495 0.19806,0.86229 0.0552,0.0988 0.15515,0.0196 0.1683,-0.004 0.0371,-0.0222 0.0868,-0.0558 0.16277,-0.13615 0.12506,-0.10197 0.21595,-0.24163 0.26855,-0.33513 0.24752,-0.39621 0.32002,-0.89703 0.13333,-1.25441 -0.35848,-0.77405 -2.02196,-0.89134 -2.24841,-0.92642 l -0.069,-0.0634 0.13326,-0.26969 c 0.0903,-0.12768 0.0807,-0.17619 0.20397,-0.24222 0.31032,0.0392 1.68889,0.33469 1.98254,0.46912 0.5052,0.22883 0.75647,0.49328 0.84147,0.96578 0.18431,0.89764 -0.4726,1.56206 -1.34604,2.48009 l -0.51752,0.51511 c -0.62294,-0.52279 -0.95662,-0.57512 -1.56293,-0.7008 -1.44928,-0.32298 -2.95706,0.0597 -4.20602,1.53579 0.24663,-0.13205 0.72497,-0.33685 1.16328,-0.45955 1.23047,-0.36019 2.45943,0.0481 3.76695,1.06066 0.24226,-0.28839 0.30743,-0.39328 0.53711,-0.67027 l 1.59201,-1.61546 c 1.32697,-1.3522 1.88542,-2.21356 1.48577,-3.37391 -0.39059,-1.09987 -2.05173,-1.26508 -2.74423,-1.34694 -0.0918,-0.0885 0.0213,-0.1911 0.0853,-0.27203 0.0646,-0.0929 0.1166,-0.17444 0.19316,-0.26677 0.15195,-0.16069 0.27878,-0.2986 0.4918,-0.48034 0.66655,-0.61591 0.7773,-0.67054 1.06396,-0.8847 l -0.0757,-0.17182 -0.31968,0.15251 z m -1.43593,0.87854 c 0.19282,0.47776 0.0228,0.51748 -0.35947,0.96715 l -0.2396,-0.0117 c -0.50141,-0.0605 -2.12895,-0.17606 -2.48509,-0.99804 -0.0853,-0.22032 -0.0718,-0.49586 0.1333,-0.76204 0.30683,-0.3813 0.95524,-0.62582 1.3722,-0.55742 0.82254,0.12424 1.19244,0.41851 1.57866,1.36205 z m 6.1229,7.51669 c -0.0119,-10e-4 -0.11934,-0.15454 -0.27554,-0.30017 -0.16714,-0.15858 -0.37216,-0.2963 -0.37216,-0.2963 l 0.32961,-3.89626 c 0.006,-0.0717 0.0322,-0.23802 0.0322,-0.23802 0.51695,0.008 0.56678,-0.0122 0.95393,0.24922 -0.0264,-0.39946 0.002,-0.58968 0.0939,-0.96708 -0.42051,0.13295 -0.55097,0.10988 -1.00514,0.0715 l 0.008,-0.0956 c 0.092,-1.0876 0.12805,-1.229 0.39492,-1.96477 -0.79174,0.67933 -0.87926,0.57563 -1.71726,0.80567 0.2008,0.32995 0.24272,0.26127 0.21441,0.59592 -0.005,0.0598 -0.0182,0.21513 -0.0233,0.27489 -0.008,0.0956 -0.0212,0.25099 -0.0581,0.25991 -0.49122,0.11492 -0.66829,-0.0686 -0.93408,-0.1994 -0.002,0.58968 0.0252,0.55585 -0.0938,0.96708 0.41564,-0.21762 0.48432,-0.1757 0.95044,-0.13627 0.0537,0.0768 0.0495,0.26901 0.0444,0.32877 l -0.24974,2.95207 -0.0526,0.62149 c -0.0313,0.3705 -0.0233,0.27489 -0.39008,0.4846 -0.19039,0.1163 -0.27911,0.16898 -0.3978,0.29135 -0.0549,0.0796 -0.27828,0.30147 -0.24951,0.38816 0.74625,-0.1415 1.17615,0.18376 1.81879,0.83999 0.44175,-0.38394 0.91834,-0.75288 1.39189,-1.08598 l -0.0387,-0.11161 z m 4.38962,-3.36104 c 0.0119,0.001 -0.38949,3.08241 -0.38949,3.08241 -0.0343,0.30996 -0.0634,0.46362 -0.32958,0.57896 -0.21719,0.10871 -0.65305,-0.0964 -0.85444,-0.23939 -0.44519,-0.33891 -0.66264,-0.88189 -0.60194,-1.43028 0.0489,-0.33249 0.11104,-0.56696 0.52011,-1.10092 0.11921,0.0132 0.0795,0.045 0.21995,0.19329 0.0954,0.11917 0.14315,0.23307 0.16304,0.27147 l 0.3499,0.54558 0.10593,-0.0848 -1.37846,-2.26443 -0.0623,-0.0914 -0.11003,-0.20527 0.0503,-0.0186 c 0.56573,0.34018 1.17368,0.29887 1.77363,0.11187 0.16699,0.2357 0.57501,0.36534 0.54334,0.65146 z m 0.84599,2.2779 0.2679,-2.42008 c 0.0251,-0.22651 0.13638,-0.14179 0.32307,-0.30213 0.12049,-0.10734 0.25555,-0.2372 0.26874,-0.35642 -0.69404,0.0559 -0.82258,-0.0911 -0.97255,-0.80759 -0.094,0.0861 -0.48725,0.47704 -0.84612,0.6666 -0.30856,0.171 -0.54431,0.22937 -0.71653,0.14997 -0.39082,-0.17601 -0.50097,-0.70711 -0.59384,-1.06736 -0.58129,0.45457 -0.74815,0.5447 -1.24877,0.7065 -0.0145,0.13114 0.003,0.19339 0.0306,0.26888 0.0517,0.0781 0.049,0.10197 0.0795,0.15361 0.0398,0.0768 0.0424,0.053 0.0822,0.12978 l 0.13254,0.21982 c 0.12458,0.18274 0.23725,0.36416 0.34991,0.54558 l 0.24256,0.42508 -0.008,0.0715 c -0.96011,0.4971 -1.50951,1.20861 -1.55288,2.03648 -0.0354,0.86495 0.64434,1.48325 1.5121,1.92927 l 1.28841,-0.95553 0.0834,0.009 c 0.20557,0.65027 0.28379,0.81581 0.90121,1.23412 l 1.01817,-1.02165 c -0.30733,-0.0582 -0.38946,-0.0793 -0.47691,-0.1614 -0.36438,-0.30583 -0.19783,-1.15626 -0.16484,-1.4543 z m 4.05167,2.18985 c -0.0119,-0.002 -0.11119,-0.1605 -0.25966,-0.314 -0.15872,-0.16702 -0.35635,-0.31515 -0.35635,-0.31515 l 0.53056,-3.87401 c 0.01,-0.0713 0.0444,-0.23604 0.0444,-0.23604 0.51587,0.0343 0.56666,0.0171 0.93978,0.29819 -0.006,-0.40029 0.0322,-0.5888 0.14371,-0.96093 -0.42683,0.11103 -0.55592,0.0812 -1.00749,0.0194 l 0.013,-0.0951 c 0.1481,-1.08139 0.1914,-1.22074 0.49595,-1.94173 -0.8258,0.6375 -0.90785,0.52941 -1.75661,0.71583 0.18347,0.33989 0.22889,0.27347 0.18332,0.60621 -0.008,0.0594 -0.0293,0.2139 -0.0374,0.27332 -0.013,0.0951 -0.0342,0.24956 -0.0715,0.25656 -0.49649,0.0894 -0.66384,-0.10303 -0.92252,-0.24741 -0.0322,0.5888 -0.004,0.55641 -0.14371,0.96094 0.42634,-0.19585 0.49275,-0.15044 0.95621,-0.087 0.0496,0.0794 0.0355,0.2712 0.0274,0.33061 l -0.40199,2.93522 -0.0846,0.61794 c -0.0505,0.36839 -0.0374,0.27332 -0.41461,0.4638 -0.19615,0.1063 -0.28747,0.15433 -0.41233,0.2704 -0.0589,0.0767 -0.29349,0.28668 -0.26923,0.37474 0.75256,-0.10274 1.16507,0.24431 1.77294,0.93287 0.461,-0.36059 0.95602,-0.70441 1.44616,-1.01258 l -0.0329,-0.11346 z m 5.061,-4.84755 c -1.24155,0.61283 -1.93786,0.5607 -2.98584,0.35434 0.22689,0.47422 0.19042,0.69917 0.11939,1.13725 l -0.33976,2.09564 c -0.0192,0.1184 -0.11836,0.87999 -0.21852,0.97311 -0.11775,0.12672 -0.12991,0.0518 -0.26751,0.15104 -0.0413,0.0298 -0.12383,0.0893 -0.21406,0.19617 -0.0902,0.10688 -0.13119,0.2096 -0.23262,0.46048 0.66622,-0.0621 1.26686,0.20539 1.67039,0.93912 l 1.63417,-1.01092 -0.0496,-0.0688 c -0.13216,-0.009 -0.29119,0.14721 -0.41534,0.16353 -0.38657,-0.46365 -0.23585,-0.2691 -0.68897,-0.62204 -0.14624,-0.0723 -0.18176,-0.0781 -0.2,-0.19039 l 0.0384,-0.23679 0.0806,-0.49728 2.93172,-1.44455 c -0.31968,-0.50141 -0.78883,-1.80473 -0.86245,-2.39991 z m -1.98448,3.39647 0.26874,-1.65757 c 0.0115,-0.071 0.2006,-1.01246 0.24379,-1.05406 0.0432,-0.0416 0.2304,-0.072 0.25408,-0.0682 0.11456,0.0429 0.50178,1.10204 0.53571,1.19259 l 0.23361,0.65758 c 0.008,0.0256 0.0423,0.18912 0.0346,0.23647 -0.759,0.4845 -0.71581,0.4429 -1.50906,0.76388 z m 14.22639,-4.19953 -2.14003,1.03085 0.31958,-1.46484 -0.22266,-0.0486 -1.70274,7.80469 c -0.023,0.10546 -0.12016,0.55078 -0.12016,0.55078 -0.081,-0.079 -0.16641,-0.30639 -0.31258,-0.42422 -0.0626,-0.0505 -0.38352,-0.26782 -0.38352,-0.26782 l 0.14573,-0.66797 c 0.0102,-0.0469 0.023,-0.10547 0.0358,-0.16406 l 1.00989,-4.62891 c 0.16511,-0.70056 0.43336,-1.64872 -0.21587,-2.33053 -0.3814,-0.39012 -1.18338,-0.54053 -1.65639,-0.3982 -0.90575,0.2689 -1.15055,1.22217 -1.23961,1.74291 0.20092,-0.18942 0.47578,-0.43637 0.78771,-0.51564 0.29765,-0.0701 0.71036,0.008 0.93238,0.22798 0.41805,0.44722 0.0752,1.62464 0.0522,1.7301 l -0.17641,0.8086 -0.0952,-0.0699 c -0.35305,-0.12613 -0.66946,-0.19516 -1.02442,0.19391 -0.38608,0.41911 -0.30234,0.87933 -0.19516,1.34467 0.16832,-0.20881 0.19389,-0.326 0.48132,-0.34922 0.11314,-0.0121 0.45404,8.4e-4 0.5039,0.10993 0.059,0.12337 -0.1306,0.87997 -0.15872,1.00888 l -0.14829,0.67969 -0.1176,0.53906 -0.0614,0.28125 c -0.0307,0.14062 -0.071,0.15639 -0.18665,0.18026 -0.24971,0.0192 -0.19517,-0.006 -0.47194,0.0812 -0.21051,0.0646 -0.36499,0.15362 -0.46747,0.22947 -0.21413,0.13744 -0.43188,0.34774 -0.71398,0.74042 1.07854,-0.32941 1.88181,0.15275 2.61094,0.97476 l 0.0535,0.0362 c 0.43082,-0.28658 1.52534,-0.85805 2.4443,-1.07496 0.0158,0.71548 0.055,1.43608 0.89448,1.86476 0.42634,-0.43488 0.87612,-0.86464 1.35595,-1.2633 l 0.0117,0.003 c -0.22373,0.0126 -0.45661,0.0109 -0.61598,-0.15894 -0.33303,-0.33046 -0.23119,-0.90979 -0.14022,-1.27052 l 0.96131,-4.40625 0.10994,-0.5039 c 0.0537,-0.2461 -0.0192,-0.24972 0.23778,-0.41463 0.0999,-0.0641 0.16107,-0.0631 0.29211,-0.15725 0.11165,-0.0616 0.19986,-0.12827 0.2478,-0.17919 0.21775,-0.2103 0.14744,-0.22564 0.26632,-0.43296 -0.27421,0.0752 -0.41335,0.094 -0.54886,0.0399 -0.39737,-0.14808 -0.56506,-0.78621 -0.63879,-1.011 z m -2.3876,2.95336 -0.14616,-0.11782 0.3247,-1.48828 0.78813,-0.40505 c 0.0916,0.14275 0.17557,0.32066 0.29063,0.46853 0.16598,0.1958 0.1191,0.18558 0.0731,0.39652 l -0.17385,0.79687 -0.10994,0.50391 -0.21967,0.0503 c 0,0 -0.18601,0.009 -0.34091,-0.013 -0.20177,-0.0317 -0.36477,-0.12869 -0.48601,-0.19197 z m -0.60636,1.99155 0.40651,-1.86328 0.0535,0.0362 c 0.43807,0.24289 0.53182,0.26335 1.06385,0.24438 l 0.0754,-0.008 -0.36049,1.65234 c -0.0153,0.0703 -0.0435,0.19922 -0.0486,0.22266 -0.46556,-0.28572 -0.60256,-0.38927 -1.1902,-0.28422 z m -0.59571,2.73047 c 0.005,-0.0234 0.54457,-2.49609 0.54457,-2.49609 0.13914,-0.0187 0.43168,-0.0654 0.61662,-0.0128 0.0795,0.0296 0.27102,0.10823 0.33622,0.14701 0.14212,0.0801 0.22564,0.14744 0.22564,0.14744 l -0.23777,1.08984 c -0.30424,1.39453 -0.0746,0.90448 -1.56453,1.48787 z m 5.59798,-3.91029 c -0.44516,0.38053 -0.94201,0.67338 -1.46169,0.91079 0.0551,0.0266 0.35362,0.16567 0.39108,0.21251 0.34946,0.32564 0.002,1.28877 -0.0164,1.35845 l -0.60104,2.08699 c -0.015,0.0581 -0.03,0.11613 -0.042,0.16258 -0.18997,0.11198 -0.29788,0.14604 -0.4294,0.22356 -0.0554,0.0228 -0.23642,0.1 -0.34809,0.24456 0.5885,0.26352 0.88367,0.46364 1.19743,1.2632 0.64036,-0.41683 0.66098,-0.44867 1.33125,-0.59762 -0.0539,-0.17497 -0.11421,-0.27726 -0.22695,-0.36832 -0.0835,-0.10829 -0.15582,-0.16413 -0.27717,-0.26981 -0.14759,-0.10006 -0.10936,-0.15213 -0.0824,-0.25665 l 0.069,-0.2671 c 0.039,-0.15098 0.10199,-0.39485 0.13799,-0.53421 l 0.23399,-0.90583 c 0.009,-0.0348 0.23399,-0.90583 0.2516,-0.92606 0.0352,-0.0404 0.55752,-0.24001 0.56914,-0.23701 0.30948,-0.14305 0.28326,-0.13743 0.54591,-0.24302 l 0.3181,-0.12843 0.0805,0.11991 0.10936,0.15213 0.17265,0.2428 -0.74396,2.88008 c -0.20699,0.80131 -0.51211,1.50294 0.42247,2.15317 0.40094,-0.30524 0.84533,-0.58687 1.29234,-0.83066 -0.0431,-0.0731 -0.1652,-0.0798 -0.24649,-0.10084 -0.0985,-0.0502 -0.18243,-0.10906 -0.2285,-0.17051 -0.2764,-0.36871 -0.026,-1.14641 0.022,-1.33222 l 0.41398,-1.60263 0.20099,-0.77808 c 0.0588,-0.0839 0.3481,-0.24456 0.42116,-0.28763 0.0615,-0.0461 0.27804,-0.21311 0.31103,-0.34085 -0.58404,-0.0889 -0.72708,-0.39841 -0.81274,-0.978 l -2.70071,1.2473 -0.11952,0.0311 c 0,0 0.06,-0.23226 0.075,-0.29033 l 0.063,-0.24388 c 0.036,-0.13936 0.0608,-0.33117 0.0679,-0.50275 0.0331,-0.51175 -0.007,-0.59643 -0.3609,-1.09666 z m 6.38081,1.9123 c -0.0922,-0.0265 -0.25384,0.10186 -0.32472,0.13144 -0.1632,0.0904 -0.24892,0.12823 -0.34947,0.17425 l -0.35108,0.13636 c -0.15168,0.0937 -0.32963,0.10508 -0.44502,0.15932 -0.13845,0.0476 -0.30487,0.0623 -0.34456,0.20062 l 0.3592,-0.0342 c 0.0773,0.12201 0.12332,0.22256 0.1924,0.32973 0.0938,0.0644 0.16292,0.17152 0.18588,0.26546 l -0.74097,2.58255 c -0.25631,0.84986 -0.5817,1.59255 0.39118,2.33338 0.52271,-0.3866 0.44191,-0.32243 1.24311,-0.76639 -0.2767,-0.0794 -0.35079,-0.1256 -0.43801,-0.21302 -0.40805,-0.49142 0.0857,-1.56014 0.10891,-1.64085 l 0.5888,-2.0522 c 0.0644,-0.0938 0.19289,-0.10688 0.27529,-0.13315 0.10056,-0.046 0.17474,-0.0871 0.28191,-0.1562 0.30997,-0.21055 0.2012,-0.17936 0.35307,-0.44775 -0.62116,0.0339 -0.77085,-0.18373 -0.98592,-0.86935 z m 0.65287,-1.88409 c -0.11699,0.0163 -0.15659,0.0674 -0.26536,0.0986 l -0.99721,0.38772 0.0542,0.11539 c 0.0692,0.0198 0.15318,0.0315 0.24041,0.11889 0.0675,0.0693 0.18427,0.22757 0.20402,0.24571 0.13164,0.15008 0.2716,0.22767 0.45115,0.25423 0.35249,0.0762 0.64593,-0.0767 1.01535,-0.40747 -0.49085,-0.11588 -0.56654,-0.19999 -0.70261,-0.81303 z m 2.79833,2.8531 -0.73914,0.26995 c -0.0981,0.0319 -0.20767,0.0603 -0.30939,0.10365 l -0.0114,-0.004 -0.47913,0.1633 c -0.31721,0.0886 -0.20044,0.0374 -0.25456,0.20898 0.0313,0.0602 0.40811,-0.0977 0.46108,-0.10611 0.12583,0.0397 0.2198,0.22025 0.27946,0.38999 0.0319,0.0981 -0.012,0.19745 -0.0312,0.41778 -0.0342,0.22817 -0.15391,0.56773 -0.21524,0.76219 l -0.62417,1.97893 c -0.24595,0.73992 -0.445,1.33114 0.20058,2.07556 1.16045,-0.48921 2.18028,-0.29332 3.23028,0.12589 -0.0381,-0.47736 0.0473,-0.58875 0.16641,-0.96624 l 0.60974,-1.93317 c 0.004,-0.0114 0.29047,-0.80134 0.29047,-0.80134 0.0933,-0.0964 0.33165,-0.13436 0.48572,-0.22411 0.0451,-0.0235 0.3196,-0.17589 0.36289,-0.31316 -0.14448,-0.0204 -0.29979,-0.006 -0.43767,-0.0877 -0.39077,-0.23644 -0.43009,-0.78965 -0.47056,-1.17972 l -1.8599,0.63334 -0.0325,0.10295 c 0.0572,0.018 0.41594,-0.0826 0.49117,-0.12178 l 0.45174,0.72102 -1.24243,3.62015 c -0.0752,0.0392 -0.22755,0.004 -0.28835,-0.003 l -0.29257,-0.0294 c -0.34916,-0.01 -0.32866,0.085 -0.56174,-0.25263 -0.33427,-0.49532 0.0176,-1.25213 0.1006,-1.51523 l 0.73425,-2.20832 c 0.15514,-0.49188 0.36563,-1.07948 -0.0145,-1.82822 z m 7.52193,2.40426 c -1.32943,0.38679 -2.00596,0.21395 -3.00186,-0.1721 0.14066,0.50654 0.0655,0.72168 -0.0809,1.14064 l -0.70022,2.00421 c -0.0396,0.11323 -0.2701,0.84583 -0.38497,0.92005 -0.13806,0.10423 -0.13697,0.0284 -0.28976,0.10205 -0.0458,0.0221 -0.13751,0.0663 -0.24501,0.1558 -0.1075,0.0895 -0.16575,0.18349 -0.3094,0.41282 0.66684,0.0551 1.21158,0.4233 1.4809,1.21618 l 1.7855,-0.71026 -0.0368,-0.0764 c -0.12851,-0.0322 -0.31241,0.0941 -0.43751,0.0885 -0.29973,-0.52399 -0.18527,-0.30613 -0.56986,-0.73272 -0.13137,-0.0967 -0.16534,-0.10858 -0.16371,-0.22236 l 0.0791,-0.22647 0.16616,-0.47557 3.1388,-0.91083 c -0.22729,-0.54951 -0.46183,-1.9147 -0.43047,-2.51359 z m -2.54668,2.99809 0.55384,-1.58525 c 0.0237,-0.0679 0.37419,-0.96193 0.42398,-0.99535 0.0498,-0.0334 0.23943,-0.0307 0.26207,-0.0228 0.10532,0.0622 0.3018,1.17269 0.3194,1.26777 l 0.11529,0.68826 c 0.003,0.0266 0.009,0.19358 -0.007,0.23888 -0.83191,0.34462 -0.78211,0.31119 -1.6192,0.48884 z m 5.58344,-1.73934 -0.21082,0.0481 c -0.74453,0.37103 -0.59989,0.36194 -1.3818,0.6289 l 0.0278,0.0619 0.056,0.0213 c 0.0224,0.008 0.0518,0.0326 0.11903,0.0582 0.0993,0.0763 0.16067,0.15103 0.18576,0.18626 0.2744,0.42536 -0.15892,1.15877 -0.21015,1.29328 l -0.45249,1.18816 c -0.0512,0.13451 -0.33136,0.83642 -0.47493,0.91009 -0.0998,0.0262 -0.23057,0.0662 -0.29942,0.0785 -0.0464,0.0208 -0.15051,0.0582 -0.28714,0.14734 -0.12115,0.0822 -0.21561,0.16175 -0.23536,0.1799 -0.0806,0.11049 -0.0987,0.0907 -0.14142,0.20284 0.92124,-0.0599 1.0606,0.41674 1.55173,1.28402 0.71143,-0.48632 0.94894,-0.53705 1.50028,-0.7378 l -0.27221,-0.0267 -0.0448,-0.0171 c -0.17136,-0.25778 -0.36941,-0.51289 -0.57172,-0.75679 l 0.68726,-1.80466 c 0.33563,-0.84762 0.16271,-0.79797 1.10259,-1.21012 0.26265,0.52358 0.49166,0.7648 0.87062,0.78077 0.5236,0.007 0.92974,-0.35183 1.14265,-0.80981 l -0.0518,-0.0326 -0.0534,0.005 -0.11101,0.0219 c -0.10248,-5.2e-4 -0.15853,-0.0219 -0.19215,-0.0347 -0.36564,-0.15208 -0.3785,-0.65753 -0.43725,-0.9751 l -1.42393,0.90805 c -0.0816,0.0459 -0.21828,0.13506 -0.28287,0.13614 0.1211,-0.62129 0.2924,-0.9026 -0.10907,-1.73573 z m 6.19979,2.46336 c -1.04716,0.24315 -2.19339,-0.0604 -2.88421,-0.46179 0,0 -0.0405,0.0352 -0.0405,0.0352 0,0 -6.7e-4,0.0646 -6.7e-4,0.0646 0.0326,0.0783 0.0307,0.0515 0.0411,0.12071 l -0.0131,0.18919 c -0.0163,0.0711 -0.0418,0.1644 -0.11945,0.35293 l -0.0914,0.22181 -0.0822,0.19962 -0.2056,0.49905 c -0.26957,0.65432 -0.25457,0.71239 -0.66437,1.14029 0.0502,0.0985 0.06,0.0118 0.14613,0.0861 l 0.60995,0.25129 c 0.0555,0.0229 0.12852,0.0659 0.17026,0.12203 l -0.29362,0.17741 c -1.03873,0.50607 -1.82625,0.84322 -2.14217,1.67303 0.0111,0.005 0.0307,0.0515 0.0555,0.0228 0.11484,-0.12133 0.15858,-0.25898 0.25253,-0.2981 0.19248,-0.0893 0.43061,-0.0691 0.53499,-0.0391 0.3575,0.10836 0.57336,0.56052 0.75138,1.01007 1.35906,-0.46492 1.9129,-0.17189 2.93772,0.45788 -0.004,-0.27402 0.0738,-0.46255 0.1541,-0.68892 l 0.10508,-0.25507 c 0.0366,-0.0887 0.0822,-0.19963 0.10965,-0.26616 l 0.5437,-1.31973 c 0.11161,-0.23941 0.186,-0.32552 0.33673,-0.47098 -0.028,-0.0894 -0.19895,-0.14683 -0.26549,-0.17424 l -0.99811,-0.4112 0.35168,-0.1924 c 0.96762,-0.5224 1.49807,-0.77087 1.90662,-1.51063 -0.0926,-0.09 -0.2525,0.0776 -0.29295,0.11282 -0.10505,0.0346 -0.20096,0.0469 -0.3099,0.028 -0.34708,-0.0392 -0.45142,-0.28976 -0.60336,-0.67666 z m -1.43926,0.25026 c 0.0222,0.009 0.20486,0.007 0.28249,0.0385 0.17279,0.52522 0.30388,0.77381 0.68813,0.88022 0.18658,0.0509 0.35816,0.0438 0.46973,0.0249 0.0939,-0.0391 0.1742,-0.045 0.26358,-0.073 0.0157,-0.006 0.094,-0.0391 0.14093,-0.0587 l 0.0626,-0.0261 0.0555,0.0228 c -0.58204,0.49964 -1.2371,0.73569 -1.71601,0.95351 l -1.18095,0.47343 -0.24984,-0.18076 c 0.0365,-0.0887 0.0457,-0.1109 0.0822,-0.19962 l 0.81651,-1.85596 c 0.032,-0.0776 0.21856,-0.0267 0.2851,7.1e-4 z m -2.80993,3.57729 c -0.34969,-0.001 -0.63222,0.1806 -0.49715,0.0417 0.0202,-0.0176 0.0763,-0.0594 0.0763,-0.0594 0,0 0.40975,-0.20739 0.6492,-0.3163 0.44302,-0.19368 1.16529,-0.46691 1.16529,-0.46691 l 0.89518,-0.40955 c 0.16116,-0.0763 0.21009,-0.0691 0.23227,-0.06 0.0776,0.032 0.47035,0.18081 0.53623,0.27281 0.0124,0.0959 -0.0124,0.12461 -0.0718,0.26878 l -0.82698,2.00731 c 0,0 -0.18853,-0.0777 -0.2753,-0.0875 -0.0555,-0.0228 -0.2603,-0.0294 -0.31575,-0.0522 -0.27128,-0.69552 -0.43368,-0.93107 -0.99799,-1.07274 -0.10438,-0.03 -0.33794,-0.0614 -0.56954,-0.066 z m 7.48884,-2.40642 c -0.0879,-0.0385 -0.26517,0.067 -0.33936,0.0869 -0.17383,0.0678 -0.26383,0.0938 -0.36962,0.126 l -0.36616,0.0882 c -0.16284,0.0726 -0.34071,0.0601 -0.46231,0.0984 -0.14357,0.0287 -0.31045,0.021 -0.36828,0.15278 l 0.36056,0.0141 c 0.0603,0.13124 0.0925,0.23704 0.14662,0.35248 0.0844,0.0763 0.13854,0.19175 0.14874,0.28791 l -1.07936,2.4604 c -0.36757,0.808 -0.78927,1.50055 0.0759,2.36472 0.56967,-0.31329 0.48102,-0.2605 1.33435,-0.59342 -0.26361,-0.11565 -0.33086,-0.17135 -0.40562,-0.26963 -0.33874,-0.54154 0.29343,-1.5347 0.32716,-1.61159 l 0.85771,-1.95514 c 0.0763,-0.0844 0.20543,-0.0802 0.29061,-0.0952 0.1058,-0.0322 0.18481,-0.063 0.30025,-0.11714 0.33532,-0.16724 0.22336,-0.15087 0.40973,-0.39656 -0.62013,-0.0494 -0.7394,-0.28507 -0.86094,-0.99328 z m 0.89875,-1.77997 c -0.11813,5.7e-4 -0.16419,0.0459 -0.27616,0.0622 l -1.04006,0.25101 0.0383,0.12161 c 0.0659,0.0289 0.14761,0.0517 0.22237,0.14994 0.0576,0.0777 0.15222,0.25015 0.16937,0.27077 0.11041,0.16632 0.23874,0.26191 0.41314,0.31222 0.33915,0.12259 0.65038,0.0103 1.06068,-0.26816 -0.47096,-0.18041 -0.53474,-0.27388 -0.58768,-0.89961 z m 1.28379,8.73105 c -0.0109,-0.005 -0.0593,-0.18604 -0.15622,-0.37632 -0.1028,-0.2062 -0.24833,-0.40575 -0.24833,-0.40575 l 1.64272,-3.54837 c 0.0302,-0.0653 0.11167,-0.21265 0.11167,-0.21265 0.48315,0.18403 0.53677,0.18241 0.8111,0.56055 0.11187,-0.38439 0.20338,-0.5535 0.41905,-0.87661 -0.44062,-0.0189 -0.55531,-0.0853 -0.96893,-0.27674 l 0.0403,-0.0871 c 0.45856,-0.9905 0.54079,-1.11104 1.04329,-1.7111 -0.97638,0.36746 -1.02314,0.24007 -1.88927,0.16953 0.0758,0.37874 0.13868,0.32855 -0.002,0.63332 -0.0252,0.0544 -0.0907,0.19592 -0.1159,0.25035 -0.0403,0.0871 -0.10582,0.22857 -0.14351,0.22434 -0.50089,-0.0601 -0.6045,-0.29307 -0.80949,-0.50693 -0.20338,0.5535 -0.16649,0.53092 -0.41905,0.87661 0.46501,-0.0623 0.5152,6e-4 0.9397,0.19712 0.0242,0.0905 -0.0455,0.2697 -0.0708,0.32412 l -1.24464,2.68849 -0.26203,0.566 c -0.1562,0.33742 -0.11589,0.25034 -0.53233,0.3219 -0.21869,0.0442 -0.32008,0.0633 -0.47347,0.13767 -0.0788,0.056 -0.36463,0.18807 -0.36725,0.27938 0.74962,0.12234 1.0423,0.57505 1.42165,1.41155 0.54644,-0.20964 1.1205,-0.39327 1.67944,-0.54425 l 0.002,-0.11811 z m 4.5494,-3.89124 c -0.86274,0.44157 -0.91643,0.41486 -1.61344,0.57717 0.23636,0.17118 0.30625,0.24614 0.37084,0.35865 0.17759,0.28931 -0.33024,1.17539 -0.34092,1.19687 l -1.08457,2.17997 c -0.51477,0.0922 -0.59523,0.0924 -1.06106,0.51706 0.72414,-0.001 1.01478,0.49147 1.19868,1.25281 0.0536,-1.1e-4 0.32707,-0.065 0.34316,-0.0704 l 2.016,-0.44386 0.0697,-0.006 c -0.14415,0.34358 -0.39537,0.79466 -0.48571,1.2186 -0.0744,0.36491 -0.10018,0.87455 -0.2712,1.19137 -0.20308,0.38125 -0.43874,0.55873 -0.97504,0.61344 -0.43976,0.0491 -0.76721,-0.0736 -0.96612,-0.2931 -0.29037,-0.35882 -0.29769,-1.34043 -0.64715,-1.74204 -0.17743,-0.20884 -0.42437,-0.30491 -0.65496,-0.27226 -0.55772,0.0708 -0.718,0.393 -0.92102,0.80107 0,0 0.0323,0.0429 0.0323,0.0429 0,0 0.0536,-1e-4 0.0536,-1e-4 l 0.0321,-0.0376 0.0589,-0.0377 c 0.0804,-0.0538 0.0804,-0.0538 0.18758,-0.0808 0.13944,-0.011 0.23069,0.021 0.33819,0.12806 0.15584,0.14452 0.15071,0.26254 0.25303,0.46081 0.0862,0.17684 0.17224,0.30004 0.24752,0.39108 0.15595,0.19816 0.31703,0.27831 0.67681,0.4707 0.68728,0.34193 1.63715,0.55997 2.5803,0.0914 0.69129,-0.33931 1.19959,-0.98401 1.23064,-1.55803 l -6.4e-4,-0.32184 c 0,0 0.33125,-0.66581 0.41673,-0.83763 l 1.12731,-2.26588 c 0.1122,-0.22551 0.16028,-0.32216 0.19774,-0.37051 0.0962,-0.1933 0.1177,-0.15579 0.39658,-0.1778 0.33243,-0.0758 0.51995,-0.18341 0.81979,-0.46294 -0.20922,-0.0103 -0.34332,-0.0101 -0.48298,-0.10632 -0.37057,-0.22456 -0.44098,-0.56772 -0.51167,-1.04498 -0.57898,0.16744 -1.15263,0.32414 -1.7424,0.45941 l -0.032,0.0912 0.24678,0.0156 c 0.11813,0.0588 0.13453,0.2143 0.19378,0.33755 0.0323,0.0428 0.12389,0.2626 0.124,0.31624 l -0.97772,1.96519 c -0.14425,0.28995 -0.39002,0.78393 -0.4436,0.81086 l -1.13666,0.2651 -0.0483,-0.0106 c -0.54201,-0.1223 -0.18346,-0.54678 -0.33973,-0.90586 l 1.29828,-2.60952 c 0.28845,-0.60671 0.72709,-1.21909 0.22648,-2.0978 z"
       id="text1"
       aria-label="The Pennsylvania State University"
       inkscape:export-filename="penn.png"
       inkscape:export-xdpi="600"
       inkscape:export-ydpi="600" />
  </g>
</svg>
