<?xml version="1.0" encoding="UTF-8" standalone="no"?>
<!-- Created with Inkscape (http://www.inkscape.org/) -->

<svg
   width="254.36525mm"
   height="16.824232mm"
   viewBox="0 0 254.36525 16.824232"
   version="1.1"
   id="svg1"
   xmlns="http://www.w3.org/2000/svg"
   xmlns:svg="http://www.w3.org/2000/svg">
  <defs
     id="defs1" />
  <g
     id="layer1"
     transform="translate(-99.134776,-215.82422)">
    <g
       id="g3">
      <path
         id="text1"
         style="font-size:25.4px;line-height:1.25;font-family:'Nuosu SIL';-inkscape-font-specification:'Nuosu SIL, Normal';font-variant-ligatures:none;text-align:center;text-anchor:middle;display:inline;stroke-width:0.25414"
         d="m 154.84961,215.82422 -0.6875,4.07812 h 0.4375 c 0.13392,-1.09502 1.01103,-1.84372 1.625,-2.25976 0.44167,-0.35862 1.24808,-0.52149 2.42969,-0.52149 h 2.07031 a 0.07870862,0.07870862 0 0 1 0.0781,0.0781 v 12.33594 c 0,0.91255 -0.0707,1.4933 -0.25976,1.78125 a 0.07870862,0.07870862 0 0 1 -0.004,0.006 c -0.3478,0.44119 -0.90196,0.66015 -1.63672,0.66015 h -0.5664 v 0.28906 h 7.27148 v -0.28906 h -0.54101 c -0.70694,0 -1.22877,-0.16702 -1.54688,-0.51758 -0.13791,-0.14151 -0.22797,-0.37024 -0.28906,-0.68945 -0.0613,-0.32052 -0.0898,-0.73362 -0.0898,-1.24023 v -12.33594 a 0.07870862,0.07870862 0 0 1 0.0781,-0.0781 h 2.4668 4.82031 2.07226 a 0.07870862,0.07870862 0 0 1 0.0781,0.0781 v 12.33594 c 0,0.91255 -0.0707,1.4933 -0.25977,1.78125 a 0.07870862,0.07870862 0 0 1 -0.004,0.006 c -0.3479,0.44131 -0.90393,0.66015 -1.63867,0.66015 h -0.56641 v 0.28906 h 7.27344 v -0.28906 h -0.54297 c -0.70693,0 -1.22876,-0.16702 -1.54688,-0.51758 -0.1379,-0.14151 -0.22797,-0.37024 -0.28906,-0.68945 -0.0613,-0.32052 -0.0898,-0.73362 -0.0898,-1.24023 v -12.33594 a 0.07870862,0.07870862 0 0 1 0.0781,-0.0781 h 2.46875 c 1.05524,0 1.87558,0.27121 2.44727,0.82227 0.23488,0.21818 0.28299,0.51214 0.28711,0.84766 0.004,0.31834 -0.0232,0.68996 0.0215,1.11132 h 0.40039 l 0.36328,-4.06054 c -0.27986,0.10096 -1.37581,0.46289 -2.8164,0.46289 H 157.4707 c -1.09996,0 -2.48437,-0.43698 -2.62109,-0.48047 z m -8.29297,0.0918 c -1.51533,0 -2.72417,0.41115 -3.64258,1.22851 -0.90341,0.79602 -1.35157,1.76966 -1.35156,2.93945 0,0.99746 0.32312,1.81545 0.9707,2.47266 a 0.07870862,0.07870862 0 0 1 0,0.002 c 0.63865,0.68617 1.99671,1.57453 4.06055,2.64844 1.68015,0.87816 2.76696,1.5232 3.27539,1.94531 0.65039,0.55338 0.98242,1.2285 0.98242,2.00586 0,0.74738 -0.32766,1.38521 -0.9707,1.89258 -0.68496,0.54615 -1.54933,0.81641 -2.58008,0.81641 -1.36154,0 -2.50925,-0.35902 -3.43359,-1.08008 -0.51261,-0.40427 -0.51768,-0.40876 -0.61914,-0.50391 -0.0998,-0.0936 -0.31945,-0.29705 -1.19922,-1.05078 h -0.34961 v 3.41602 h 0.32031 c 0.0601,-0.28627 0.149,-0.51713 0.28125,-0.67578 0.14307,-0.17162 0.33778,-0.26172 0.56055,-0.26172 0.10677,0 0.29059,0.0387 0.58789,0.11523 0.29729,0.0766 0.69991,0.19098 1.20898,0.34375 a 0.07870862,0.07870862 0 0 1 0,0.002 c 1.02713,0.31836 2.00242,0.47657 2.92774,0.47657 1.55636,0 2.85433,-0.43168 3.90625,-1.29688 1.01977,-0.87307 1.52344,-1.90725 1.52343,-3.12109 0,-1.34152 -0.60702,-2.43258 -1.83984,-3.29883 -0.34397,-0.24176 -0.79684,-0.52015 -1.35742,-0.83203 -0.55199,-0.31168 -1.2214,-0.65812 -2.00586,-1.03906 -0.86919,-0.43531 -1.59309,-0.82148 -2.17383,-1.15821 -0.58029,-0.33657 -1.01821,-0.63529 -1.31445,-0.90039 l -0.002,-0.002 c -0.58971,-0.50598 -0.89454,-1.09117 -0.89454,-1.74023 0,-0.70184 0.31687,-1.3132 0.9336,-1.8125 0.60166,-0.50042 1.34949,-0.75 2.23242,-0.75 1.29829,0 2.40956,0.41522 3.31641,1.24414 0.8892,0.79031 0.0652,0.0599 1.57812,1.44921 h 0.36133 v -3.4746 h -0.33984 c -0.094,0.28266 -0.2073,0.50755 -0.35157,0.6621 -0.15445,0.16547 -0.34538,0.25391 -0.55664,0.25391 -0.0464,0 -0.0993,-0.0115 -0.17969,-0.0312 -0.0804,-0.0197 -0.18436,-0.0474 -0.3125,-0.0859 -0.25626,-0.0771 -0.60946,-0.193 -1.06054,-0.3457 -0.85245,-0.30253 -1.68337,-0.45312 -2.49219,-0.45312 z m 44.50391,0 c -2.48024,0 -4.53927,0.79026 -6.19532,2.37109 -1.6641,1.58071 -2.49414,3.55689 -2.49414,5.94922 0,2.47705 0.82154,4.50007 2.46875,6.08789 1.60656,1.55029 3.59733,2.32422 5.98633,2.32422 2.41239,0 4.43422,-0.80201 6.08203,-2.41211 l 0.002,-0.002 c 1.63041,-1.63373 2.44531,-3.64764 2.44531,-6.05468 0,-2.37738 -0.81068,-4.34311 -2.4336,-5.91602 -1.6071,-1.56612 -3.55579,-2.34765 -5.86132,-2.34765 z m 67.21679,0 c -1.51533,0 -2.72417,0.41115 -3.64257,1.22851 -0.90341,0.79602 -1.35157,1.76966 -1.35157,2.93945 0,0.99746 0.32312,1.81545 0.97071,2.47266 a 0.07870862,0.07870862 0 0 1 0,0.002 c 0.63865,0.68617 1.99669,1.57453 4.06054,2.64844 1.68015,0.87816 2.76696,1.5232 3.27539,1.94531 0.6504,0.55338 0.98243,1.2285 0.98243,2.00586 0,0.74738 -0.32767,1.38521 -0.97071,1.89258 -0.68495,0.54615 -1.54932,0.81641 -2.58008,0.81641 -1.36153,0 -2.50924,-0.35902 -3.43359,-1.08008 -0.51261,-0.40427 -0.51768,-0.40876 -0.61914,-0.50391 -0.0998,-0.0936 -0.31945,-0.29705 -1.19922,-1.05078 h -0.34961 v 3.41602 h 0.32227 c 0.0626,-0.32745 0.18153,-0.56308 0.35742,-0.70313 0.18935,-0.15076 0.4301,-0.19628 0.68359,-0.18554 0.50698,0.0215 1.09082,0.26053 1.59375,0.41015 a 0.07870862,0.07870862 0 0 1 0.002,0.002 c 1.02713,0.31836 2.00241,0.47657 2.92773,0.47657 1.55637,0 2.85434,-0.43168 3.90625,-1.29688 1.01978,-0.87307 1.52344,-1.90725 1.52344,-3.12109 0,-1.34152 -0.60704,-2.43258 -1.83985,-3.29883 -0.34385,-0.24168 -0.79872,-0.52011 -1.35937,-0.83203 -0.55207,-0.31163 -1.2195,-0.65814 -2.00391,-1.03906 -0.86914,-0.43529 -1.59498,-0.82144 -2.17578,-1.15821 -0.58036,-0.33661 -1.01639,-0.63541 -1.3125,-0.90039 l -0.002,-0.002 c -0.58971,-0.50598 -0.89453,-1.09117 -0.89453,-1.74023 0,-0.70184 0.31687,-1.3132 0.93359,-1.8125 0.60167,-0.50042 1.3495,-0.75 2.23242,-0.75 1.29829,0 2.40766,0.41525 3.31446,1.24414 0.8892,0.79031 0.0651,0.0599 1.57812,1.44921 h 0.36328 v -3.4746 h -0.34179 c -0.0911,0.30367 -0.21793,0.52503 -0.38282,0.66015 -0.17686,0.14494 -0.38871,0.19567 -0.61328,0.19141 -0.44913,-0.009 -0.95832,-0.22879 -1.46289,-0.39844 -0.85244,-0.30253 -1.68337,-0.45312 -2.49219,-0.45312 z m 17.26953,0 c -2.6205,0 -4.75393,0.84916 -6.41796,2.55078 -1.61585,1.66488 -2.42188,3.67507 -2.42188,6.04492 0,2.28685 0.73648,4.17789 2.21094,5.68945 1.58931,1.63265 3.6558,2.44727 6.21875,2.44727 3.09364,0 5.45924,-0.87091 7.14648,-3.56641 l -0.26172,-0.17773 c -0.99246,1.27516 -1.9419,1.69763 -2.8164,2.17578 a 0.07870862,0.07870862 0 0 1 0,0.002 c -0.83271,0.44232 -1.85955,0.66016 -3.07617,0.66016 -2.02504,0 -3.63341,-0.61436 -4.80664,-1.84375 -1.22316,-1.29076 -1.83204,-3.08156 -1.83204,-5.35352 0,-1.30282 0.14683,-2.45009 0.44727,-3.44336 0.30027,-1.00029 0.74554,-1.84922 1.33203,-2.54492 1.09744,-1.30627 2.59962,-1.96094 4.48633,-1.96094 1.02027,0 2.11137,0.0725 3.14258,0.51367 1.02099,0.43679 1.98002,1.23799 2.74609,2.66602 h 0.27734 l -0.39453,-3.85937 h -0.32031 c -0.10392,0.35464 -0.24159,0.63513 -0.42383,0.82617 -0.19298,0.2023 -0.4353,0.30664 -0.71093,0.30664 a 0.07870862,0.07870862 0 0 1 -0.0274,-0.004 l -0.37109,-0.13672 a 0.07870862,0.07870862 0 0 1 -0.002,-0.002 c -0.2387,-0.0987 -0.60584,-0.24302 -1.10156,-0.43359 a 0.07870862,0.07870862 0 0 1 -0.002,0 c -0.95831,-0.37029 -1.96407,-0.55664 -3.02149,-0.55664 z m 35.51563,0 c -2.48024,0 -4.54126,0.79029 -6.19727,2.37109 -1.6641,1.58071 -2.49414,3.55689 -2.49414,5.94922 0,2.47701 0.82347,4.50005 2.47071,6.08789 1.60657,1.55031 3.59537,2.32422 5.98437,2.32422 2.41239,0 4.43422,-0.80201 6.08203,-2.41211 l 0.002,-0.002 c 1.63041,-1.63373 2.44531,-3.64764 2.44531,-6.05468 0,-2.37743 -0.80875,-4.34314 -2.43164,-5.91602 -1.60711,-1.56612 -3.5558,-2.34765 -5.86133,-2.34765 z m 19.09961,0 c -2.48024,0 -4.54126,0.79029 -6.19727,2.37109 -1.6641,1.58071 -2.49414,3.55689 -2.49414,5.94922 0,2.47701 0.82347,4.50005 2.47071,6.08789 1.60657,1.55031 3.59537,2.32422 5.98437,2.32422 2.41239,0 4.43422,-0.80201 6.08203,-2.41211 l 0.002,-0.002 c 1.63041,-1.63373 2.44531,-3.64764 2.44531,-6.05468 0,-2.37743 -0.80875,-4.34314 -2.43164,-5.91602 -1.6071,-1.56612 -3.5558,-2.34765 -5.86133,-2.34765 z m -231.027344,0.37695 v 0.26172 c 0.709881,0.0127 1.233724,0.18624 1.548824,0.54297 0.002,0.002 0.004,0.004 0.006,0.006 0.13763,0.0968 0.26608,0.30667 0.43946,0.65625 0.17963,0.3622 0.39402,0.86782 0.64257,1.51757 l 5.17774,13.3711 h 0.36133 l 3.9375,-10.26953 a 0.07870862,0.07870862 0 0 1 0.14843,0 l 3.94922,10.26953 h 0.42383 l 4.8418,-12.99219 c 0.1904,-0.49644 0.35688,-0.91079 0.49805,-1.24023 0.14089,-0.32879 0.25411,-0.57805 0.33789,-0.74805 a 0.07870862,0.07870862 0 0 1 0.004,-0.006 c 0.44336,-0.71202 1.09165,-1.08001 1.91016,-1.10352 v -0.26562 h -5.06445 v 0.25976 c 0.60792,0.008 1.07693,0.0968 1.40234,0.28516 0.33994,0.19672 0.51953,0.50771 0.51953,0.90039 0,0.38504 -0.18379,1.03313 -0.54883,1.97461 l -3.32422,8.92188 a 0.07870862,0.07870862 0 0 1 -0.14843,0 l -3.38672,-8.8086 v -0.002 c -0.38118,-0.98651 -0.57422,-1.68979 -0.57422,-2.13281 0,-0.37203 0.12695,-0.66863 0.38086,-0.86133 0.25391,-0.1927 0.62248,-0.28125 1.09961,-0.28125 h 0.38086 v -0.25586 h -6.6543 v 0.26172 c 0.55719,0.0127 1.03882,0.15226 1.43164,0.43164 a 0.07870862,0.07870862 0 0 1 0.004,0.004 c 0.3974,0.31778 0.82281,1.04278 1.3125,2.19141 a 0.07870862,0.07870862 0 0 1 0,0.002 c 0.0997,0.24538 0.20117,0.51152 0.30078,0.79493 v -0.004 c 0.10827,0.27658 0.20898,0.57264 0.30859,0.88672 a 0.07870862,0.07870862 0 0 1 0,0.0508 l -2.90234,7.72266 a 0.07870862,0.07870862 0 0 1 -0.14844,0 l -3.43555,-9.08399 c -0.36487,-0.96411 -0.54882,-1.60591 -0.54882,-1.96289 0,-0.15345 0.047,-0.3071 0.13476,-0.46094 0.21545,-0.38925 0.66513,-0.57812 1.30859,-0.57812 h 0.21875 v -0.25586 z m 25.705074,0 v 0.25586 h 0.51758 c 0.70725,0 1.24738,0.17089 1.60547,0.52539 0.13448,0.1287 0.21652,0.35162 0.27344,0.66992 0.0569,0.3183 0.084,0.73422 0.084,1.25195 v 10.49219 c 0,0.54939 -0.04,0.99667 -0.125,1.34375 -0.085,0.34708 -0.21394,0.59791 -0.40039,0.74414 -0.34862,0.27338 -0.83062,0.40625 -1.4375,0.40625 h -0.51758 v 0.28906 h 13.3125 l 0.43946,-2.4414 h -0.40235 c -0.47732,0.53091 -0.59357,0.71542 -0.65039,0.80859 -0.029,0.0476 -0.0534,0.087 -0.10156,0.12695 -0.0481,0.04 -0.11747,0.0842 -0.25391,0.17383 -0.65027,0.41847 -1.66463,0.61914 -3.04492,0.61914 h -2.96484 c -0.36611,0 -0.66608,-0.0435 -0.90235,-0.13672 -0.23526,-0.0929 -0.40732,-0.23815 -0.5039,-0.43164 l -0.002,-0.002 c -0.0525,-0.0981 -0.0804,-0.24465 -0.10156,-0.45898 -0.0213,-0.2157 -0.0312,-0.49699 -0.0312,-0.84571 v -5.33203 a 0.07870862,0.07870862 0 0 1 0.0781,-0.0781 h 3.3164 c 1.10059,0 1.84742,0.18583 2.23828,0.5957 0.0543,0.0566 0.0986,0.0744 0.14844,0.0898 0.0498,0.0155 0.1092,0.0254 0.17383,0.0645 0.0646,0.039 0.12301,0.1082 0.16797,0.2207 0.0391,0.0978 0.0695,0.25267 0.0996,0.44336 h 0.3418 v -3.49609 h -0.3418 c -0.03,0.18487 -0.0623,0.33546 -0.10156,0.42968 -0.0453,0.10879 -0.10283,0.17524 -0.16797,0.21094 -0.0651,0.0357 -0.12476,0.0425 -0.17383,0.0566 -0.0491,0.0141 -0.0924,0.0315 -0.14649,0.0879 -0.38374,0.39525 -1.12989,0.57227 -2.23828,0.57227 h -3.3164 a 0.07870862,0.07870862 0 0 1 -0.0781,-0.0781 v -6.38476 a 0.07870862,0.07870862 0 0 1 0.0781,-0.0781 h 4.82422 c 1.38241,0 2.31653,0.25576 2.78906,0.80469 a 0.07870862,0.07870862 0 0 1 0,0.002 c 0.0899,0.11066 0.18018,0.31308 0.29101,0.62696 0.10587,0.29979 0.22822,0.71089 0.36524,1.20898 h 0.36523 l -0.20117,-3.35742 z m 75.01368,0 v 0.26172 c 0.71002,0.0127 1.23555,0.1861 1.55078,0.54297 0.002,0.002 0.004,0.004 0.006,0.006 0.13762,0.0968 0.26607,0.30667 0.43945,0.65625 0.17964,0.3622 0.39402,0.86782 0.64258,1.51757 l 5.17578,13.3711 h 0.36328 l 3.93555,-10.26953 a 0.07870862,0.07870862 0 0 1 0.14843,0 l 3.94922,10.26953 h 0.42383 l 4.84375,-12.99219 c 0.18595,-0.49889 0.35717,-0.91147 0.49805,-1.24023 0.14079,-0.32855 0.25194,-0.57761 0.33594,-0.74805 a 0.07870862,0.07870862 0 0 1 0.004,-0.006 c 0.44335,-0.71202 1.09165,-1.08001 1.91016,-1.10352 v -0.26562 h -5.06446 v 0.33398 c 0,0.28178 0.10168,0.42013 0.26172,0.51172 0.16004,0.0916 0.38991,0.12579 0.62696,0.14258 0.23705,0.0168 0.47851,0.0164 0.67382,0.0644 0.0977,0.024 0.18661,0.0607 0.25391,0.125 0.0673,0.0643 0.10547,0.15805 0.10547,0.26758 0,0.38504 -0.18378,1.03313 -0.54883,1.97461 l -3.32422,8.92188 a 0.07870862,0.07870862 0 0 1 -0.14843,0 l -3.38477,-8.81055 c -0.37967,-0.98803 -0.57617,-1.689 -0.57617,-2.13281 0,-0.37203 0.12695,-0.66863 0.38086,-0.86133 0.25391,-0.1927 0.62248,-0.28125 1.09961,-0.28125 h 0.38086 v -0.25586 h -6.65235 v 0.26172 c 0.55704,0.0127 1.03696,0.15232 1.42969,0.43164 a 0.07870862,0.07870862 0 0 1 0.004,0.004 c 0.3974,0.31778 0.82281,1.04278 1.3125,2.19141 a 0.07870862,0.07870862 0 0 1 0,0.002 c 0.0997,0.24538 0.20117,0.51152 0.30078,0.79493 v -0.004 c 0.10815,0.27628 0.21085,0.57235 0.31054,0.88672 a 0.07870862,0.07870862 0 0 1 0,0.0508 l -2.90234,7.72266 a 0.07870862,0.07870862 0 0 1 -0.14844,0 l -3.43554,-9.08399 c -0.36452,-0.96411 -0.55078,-1.60555 -0.55079,-1.96289 0,-0.15345 0.047,-0.3071 0.13477,-0.46094 0.21545,-0.38925 0.66513,-0.57812 1.30859,-0.57812 h 0.21875 v -0.25586 z m 24.76757,0 v 0.26172 c 0.83861,0.0148 1.54222,0.25592 2.09375,0.73437 a 0.07870862,0.07870862 0 0 1 0.008,0.006 c 0.14017,0.15978 0.27797,0.3247 0.41015,0.49219 5e-4,5.7e-4 0.001,0.001 0.002,0.002 5.6e-4,7.2e-4 0.001,0.001 0.002,0.002 0.0605,0.0675 0.15765,0.13663 0.24609,0.21484 0.0899,0.0795 0.17774,0.17833 0.17774,0.31445 v 11.21485 c 0,0.46812 -0.0236,0.84996 -0.0742,1.14648 -0.0506,0.29652 -0.12567,0.50819 -0.24219,0.64258 -0.3009,0.44163 -0.85618,0.6582 -1.63477,0.6582 h -0.54101 v 0.28906 h 5.94531 v -0.28906 h -0.5293 c -0.73131,0 -1.26514,-0.16622 -1.58398,-0.51758 -0.27378,-0.29609 -0.37891,-0.93163 -0.37891,-1.92968 v -9.92188 a 0.07870862,0.07870862 0 0 1 0.13672,-0.0527 l 11.54688,12.97461 h 0.3457 v -13.53907 c 0,-0.91883 0.0821,-1.50595 0.29883,-1.79492 l 0.002,-0.002 c 0.30838,-0.43701 0.86505,-0.65039 1.63867,-0.65039 h 0.5293 v -0.25586 h -5.93359 v 0.25586 h 0.5039 c 0.69164,0 1.22487,0.18103 1.58203,0.55078 0.14292,0.13412 0.23741,0.35943 0.30079,0.67187 0.0639,0.31507 0.0937,0.72168 0.0937,1.22461 v 9.31446 a 0.07870862,0.07870862 0 0 1 -0.13672,0.0527 l -10.66797,-12.07031 z m 59.25,0 v 0.25586 h 0.0391 c 0.69196,0 1.21425,0.18489 1.54687,0.56445 a 0.07870862,0.07870862 0 0 1 0.002,0.002 c 0.26115,0.30983 0.36329,0.94327 0.36329,1.92579 v 10.44726 c 0,0.50609 -0.0237,0.91437 -0.0742,1.22656 -0.0505,0.3122 -0.12186,0.52878 -0.24219,0.65821 -0.34834,0.40826 -0.88767,0.60937 -1.5957,0.60937 h -0.0391 v 0.28906 h 6.81836 v -0.28906 h -0.55468 c -0.73325,0 -1.28912,-0.19552 -1.64649,-0.59765 -0.12949,-0.14157 -0.21262,-0.36892 -0.26953,-0.6836 -0.0569,-0.31468 -0.084,-0.71791 -0.084,-1.21289 v -4.93164 a 0.07870862,0.07870862 0 0 1 0.0781,-0.0781 h 8.17383 a 0.07870862,0.07870862 0 0 1 0.0781,0.0781 v 4.93164 c 0,0.94459 -0.10199,1.56533 -0.35156,1.88086 a 0.07870862,0.07870862 0 0 1 -0.002,0.002 c -0.34078,0.41115 -0.8895,0.61133 -1.62305,0.61133 h -0.54101 v 0.28906 h 6.8164 v -0.28906 h -0.0234 c -0.75788,0 -1.31516,-0.20061 -1.64843,-0.61328 -0.11544,-0.14195 -0.18927,-0.36572 -0.24024,-0.67773 -0.051,-0.31201 -0.0762,-0.71221 -0.0762,-1.20313 v -10.44726 c 0,-0.34408 0.005,-0.62295 0.0137,-0.8379 0.008,-0.21405 0.0151,-0.36796 0.0234,-0.46289 a 0.07870862,0.07870862 0 0 1 0.002,-0.01 c 0.053,-0.23633 0.1731,-0.44656 0.35547,-0.63086 a 0.07870862,0.07870862 0 0 1 0.002,-0.002 c 0.38051,-0.36707 0.90908,-0.54883 1.56836,-0.54883 h 0.0234 v -0.25586 h -6.8164 v 0.25586 h 0.54101 c 0.64311,0 1.17021,0.18129 1.56641,0.54687 0.14887,0.13735 0.24668,0.36888 0.3125,0.69141 0.0658,0.32253 0.0976,0.73956 0.0976,1.25391 v 4.6582 a 0.07870862,0.07870862 0 0 1 -0.0781,0.0781 h -8.17383 a 0.07870862,0.07870862 0 0 1 -0.0781,-0.0781 v -4.6582 c 0,-0.97624 0.12892,-1.61986 0.43164,-1.94141 0.35686,-0.36945 0.88481,-0.55078 1.56836,-0.55078 h 0.55468 v -0.25586 z m 56.26563,0 v 0.29492 c 0.79092,0.008 0.93935,0.12301 1.29297,0.32617 a 0.07870862,0.07870862 0 0 1 0.002,0 c 0.50105,0.30007 0.74414,0.90035 0.74414,1.76172 v 11.20313 c 0,0.85383 -0.24265,1.45613 -0.74219,1.77148 a 0.07870862,0.07870862 0 0 1 -0.004,0.002 c -0.35359,0.20287 -0.50203,0.3177 -1.29297,0.32618 v 0.29296 h 12.91992 l 0.44336,-2.76171 -0.33398,-0.0508 -0.85938,1.19922 c -0.23537,0.32722 -0.70905,0.50297 -1.35352,0.60742 -0.64446,0.10446 -1.46747,0.13282 -2.41992,0.13282 h -1.78515 c -0.81747,0 -1.37968,-0.10486 -1.69727,-0.34766 a 0.07870862,0.07870862 0 0 1 -0.002,0 c -0.3865,-0.29848 -0.5625,-0.8865 -0.5625,-1.74414 v -10.63086 c 0,-0.84637 0.24293,-1.44459 0.74219,-1.75976 a 0.07870862,0.07870862 0 0 1 0.004,-0.002 c 0.35362,-0.20314 0.50205,-0.31771 1.29297,-0.32617 v -0.29492 z m -149.36133,0.30273 c 1.94412,0.0193 3.41679,0.69309 4.38672,2.01758 0.96993,1.32449 1.43849,3.28707 1.42187,5.88672 -0.0249,2.45969 -0.56009,4.34416 -1.61718,5.64453 a 0.07870862,0.07870862 0 0 1 0,0.002 c -1.00663,1.22282 -2.39963,1.82789 -4.1543,1.8125 a 0.07870862,0.07870862 0 0 1 -0.002,0 c -1.78204,-0.0235 -3.18335,-0.75846 -4.17969,-2.19531 -0.97092,-1.39776 -1.45117,-3.26583 -1.45117,-5.5957 0,-2.32996 0.48319,-4.18543 1.46289,-5.56055 a 0.07870862,0.07870862 0 0 1 0.002,-0.002 c 0.99711,-1.34512 2.38262,-2.01733 4.13086,-2.00977 z m 120.00195,0 c 1.94412,0.0193 3.41533,0.69309 4.38477,2.01758 0.96944,1.3245 1.43849,3.28708 1.42187,5.88672 -0.0249,2.45969 -0.5601,4.34416 -1.61718,5.64453 a 0.07870862,0.07870862 0 0 1 0,0.002 c -1.0066,1.22278 -2.39768,1.82789 -4.15235,1.8125 a 0.07870862,0.07870862 0 0 1 -0.002,0 c -1.78204,-0.0235 -3.18335,-0.75846 -4.17969,-2.19531 -0.97088,-1.39772 -1.45312,-3.26578 -1.45312,-5.5957 0,-2.33001 0.48516,-4.18547 1.46484,-5.56055 a 0.07870862,0.07870862 0 0 1 0.002,-0.002 c 0.9971,-1.34512 2.38263,-2.01733 4.13086,-2.00977 z m 19.09961,0 c 1.94412,0.0193 3.41533,0.69309 4.38477,2.01758 0.96944,1.3245 1.43849,3.28708 1.42187,5.88672 -0.0249,2.45969 -0.56009,4.34416 -1.61718,5.64453 a 0.07870862,0.07870862 0 0 1 0,0.002 c -1.0066,1.22278 -2.39768,1.82789 -4.15235,1.8125 a 0.07870862,0.07870862 0 0 1 -0.002,0 c -1.78204,-0.0235 -3.18336,-0.75846 -4.17969,-2.19531 -0.97089,-1.39772 -1.45312,-3.26578 -1.45312,-5.5957 0,-2.33001 0.48516,-4.18547 1.46484,-5.56055 a 0.07870862,0.07870862 0 0 1 0.002,-0.002 c 0.9971,-1.34512 2.38263,-2.01733 4.13086,-2.00977 z" />
    </g>
  </g>
</svg>
