<?xml version="1.0" encoding="UTF-8" standalone="no"?>
<!-- Created with Inkscape (http://www.inkscape.org/) -->

<svg
   width="25.400002mm"
   height="25.400002mm"
   viewBox="0 0 25.400002 25.400002"
   version="1.1"
   id="svg1"
   xmlns="http://www.w3.org/2000/svg"
   xmlns:svg="http://www.w3.org/2000/svg">
  <defs
     id="defs1" />
  <g
     id="layer1"
     style="display:inline"
     transform="translate(-212.30024,-212.30024)">
    <g
       id="g5">
      <g
         id="g4">
        <path
           id="path1-0"
           style="display:inline;fill:#c8ab37;stroke-width:1;stroke-opacity:0"
           d="m 225.00022,212.30022 a 12.7,12.7 0 0 0 -12.7,12.7 12.7,12.7 0 0 0 12.7,12.7 12.7,12.7 0 0 0 12.7,-12.7 12.7,12.7 0 0 0 -12.7,-12.7 z m 0,1.09967 a 11.6,11.6 0 0 1 11.59981,11.60033 11.6,11.6 0 0 1 -11.59981,11.59981 11.6,11.6 0 0 1 -11.60033,-11.59981 11.6,11.6 0 0 1 11.60033,-11.60033 z" />
        <path
           id="path2"
           style="display:inline;fill:#c8ab37;fill-opacity:1;stroke:none;stroke-width:0.930432;stroke-opacity:1"
           d="m 225.00351,214.27877 a 10.7,10.7 0 0 0 -10.70012,10.70012 10.7,10.7 0 0 0 10.70012,10.69961 10.7,10.7 0 0 0 10.69961,-10.69961 10.7,10.7 0 0 0 -10.69961,-10.70012 z m -7.7463,6.49986 h 4.01733 v 0.1757 h -0.13643 c -0.41331,0 -0.70426,0.13319 -0.84181,0.40256 -0.0563,0.10702 -0.0842,0.21346 -0.0842,0.31833 0,0.24585 0.11849,0.69065 0.35192,1.35909 l 2.19883,6.3009 a 0.05463674,0.05463674 0 0 0 0.1018,0 l 1.8557,-5.35729 a 0.05463674,0.05463674 0 0 0 0.002,-0.0331 c -0.0637,-0.21767 -0.12968,-0.42365 -0.19895,-0.61546 -0.0635,-0.19564 -0.12827,-0.37752 -0.19172,-0.54674 -0.31323,-0.79635 -0.58435,-1.30001 -0.83974,-1.52135 a 0.05463674,0.05463674 0 0 0 -0.002,-0.002 c -0.25107,-0.19354 -0.55973,-0.29125 -0.91571,-0.30076 v -0.17983 h 4.24781 v 0.1757 h -0.2403 c -0.30638,0 -0.54374,0.063 -0.70693,0.1974 -0.16319,0.13444 -0.24392,0.33879 -0.24392,0.59583 0,0.30621 0.12482,0.7917 0.36897,1.4764 l 2.16628,6.11125 a 0.05463674,0.05463674 0 0 0 0.10129,0 l 2.127,-6.18928 c 0.2335,-0.65273 0.35347,-1.10161 0.35347,-1.36736 0,-0.27113 -0.11483,-0.48578 -0.33383,-0.6227 -0.20879,-0.13053 -0.50909,-0.19378 -0.89659,-0.19947 v -0.17777 h 3.23236 v 0.1819 c -0.52403,0.0177 -0.9399,0.27518 -1.22266,0.7674 a 0.05463674,0.05463674 0 0 0 -0.002,0.004 c -0.0535,0.11782 -0.12639,0.29187 -0.21653,0.51987 -0.0904,0.22854 -0.19447,0.51522 -0.31626,0.85938 l -3.10006,9.00772 h -0.26355 L 225.1018,225 A 0.05463674,0.05463674 0 0 0 225,225 l -2.51975,7.11895 h -0.22221 l -3.31297,-9.26972 c -0.15901,-0.45055 -0.29457,-0.80132 -0.4098,-1.05265 -0.0576,-0.12567 -0.11054,-0.22574 -0.15813,-0.30283 -0.0476,-0.0771 -0.088,-0.13136 -0.13487,-0.16381 -0.20188,-0.24189 -0.53583,-0.36149 -0.98444,-0.37104 z" />
      </g>
    </g>
  </g>
</svg>
