<?xml version="1.0" encoding="UTF-8" standalone="no"?>
<!-- Created with Inkscape (http://www.inkscape.org/) -->

<svg
   width="202.94888mm"
   height="202.94887mm"
   viewBox="0 0 202.94888 202.94887"
   version="1.1"
   id="svg1"
   xmlns="http://www.w3.org/2000/svg"
   xmlns:svg="http://www.w3.org/2000/svg">
  <defs
     id="defs1" />
  <rect
     style="display:none;fill:#ff0000;stroke-width:1"
     id="rect3"
     width="364.69778"
     height="334.40933"
     x="-79.901703"
     y="-61.889923" />
  <g
     id="g1"
     style="display:none"
     transform="translate(-121.93467,-123.08497)">
    <path
       id="path1"
       style="display:inline;fill:#000000;stroke-width:1"
       d="m 185.076,174.59995 3.33793,3.04128 -1.37011,4.30276 4.41138,0.96477 0.96476,4.41138 4.30277,-1.37018 3.04128,3.338 3.0412,-3.338 4.30277,1.37018 0.96476,-4.41138 4.41138,-0.96477 -1.3701,-4.30276 3.33793,-3.04128 -3.33793,-3.0412 1.3701,-4.30277 -4.41138,-0.96476 -0.96476,-4.41146 -4.30277,1.37018 -3.0412,-3.33793 -3.04128,3.33793 -4.30277,-1.37018 -0.96476,4.41146 -4.41138,0.96476 1.37018,4.30277 z m 7.74018,-0.48208 c 0,-1.6122 0.38382,-2.94292 1.15154,-3.99213 0.76771,-1.06201 1.82971,-1.74653 3.18601,-2.05362 v 3.20523 c -0.5374,0.19193 -0.95322,0.53098 -1.24751,1.0172 -0.29429,0.47343 -0.44146,1.08762 -0.44146,1.84254 0,0.83169 0.18552,1.53543 0.55658,2.11122 0.35827,0.57578 0.87013,1.01081 1.53548,1.3051 0.65256,0.29429 1.42664,0.44147 2.32231,0.44147 0.92125,0 1.70176,-0.14718 2.34152,-0.44147 0.63976,-0.29429 1.12599,-0.71653 1.45867,-1.26673 0.31988,-0.56299 0.47984,-1.23474 0.47984,-2.01525 0,-1.10039 -0.28793,-1.9321 -0.86371,-2.49509 -0.57579,-0.57578 -1.29867,-0.92762 -2.16874,-1.05557 v 3.14764 h -2.14967 v -6.0266 h 7.50442 v 2.64865 l -2.13037,0.21109 v 0.0767 c 0.49902,0.2815 0.92761,0.62698 1.28588,1.03642 0.35827,0.40945 0.62698,0.8829 0.80612,1.4203 0.17913,0.5246 0.26875,1.10038 0.26875,1.72734 0,1.15158 -0.2815,2.18159 -0.84449,3.09005 -0.57578,0.89567 -1.3755,1.59941 -2.39912,2.11122 -1.02362,0.51181 -2.22001,0.76774 -3.5891,0.76774 -1.38189,0 -2.60385,-0.26872 -3.66586,-0.80612 -1.062,-0.55019 -1.89363,-1.3307 -2.49501,-2.34152 -0.60138,-1.02362 -0.90208,-2.24558 -0.90208,-3.66585 z"
       transform="matrix(0,6.9086555,-6.9086555,0,1429.7768,-1155.1005)" />
  </g>
  <g
     id="layer1"
     style="display:none"
     transform="translate(-121.93467,-123.08497)">
    <path
       style="display:inline;fill:#1a1a1a;stroke-width:1"
       id="path6-9"
       d="m 199.76398,159.91198 2.81205,3.27904 4.0138,-1.59662 0.9661,4.21028 4.29603,0.45156 -1.10117,4.17699 3.59409,2.3963 -2.91618,3.1868 2.0688,3.79208 -4.06313,1.46655 0.0695,4.31914 -4.27926,-0.58966 -1.94561,3.85673 -3.51507,-2.51079 -3.51507,2.51079 -1.94562,-3.85673 -4.27926,0.58966 0.0696,-4.31914 -4.06313,-1.46655 2.06879,-3.79208 -2.91618,-3.1868 3.59409,-2.3963 -1.10117,-4.17699 4.29603,-0.45157 0.9661,-4.21027 4.0138,1.59662 z"
       transform="matrix(0,6.9086555,-6.9086555,0,1429.6601,-1155.541)" />
  </g>
  <g
     id="layer2"
     style="display:none"
     transform="translate(-121.93467,-123.08497)">
    <text
       xml:space="preserve"
       style="font-size:132.597px;line-height:1.25;font-family:'DM Sans';-inkscape-font-specification:'DM Sans, @opsz=40,wght=900';font-variant-ligatures:none;font-variation-settings:'opsz' 40, 'wght' 900;text-align:center;text-anchor:middle;fill:#ffffff;stroke-width:0.487263"
       x="225.66287"
       y="271.409"
       id="text2"><tspan
         id="tspan2"
         style="fill:#ffffff;stroke-width:0.487263"
         x="225.66287"
         y="271.409">G</tspan></text>
  </g>
  <g
     id="g5"
     style="display:inline"
     transform="translate(-121.93467,-123.08497)">
    <path
       id="path4"
       style="display:inline;fill:#1a1a1a;stroke-width:1"
       d="m 185.07595,174.59996 3.33801,3.04128 -1.37018,4.30277 4.41138,0.96476 0.96484,4.41138 4.30277,-1.37018 3.0412,3.33801 3.04127,-3.33801 4.30277,1.37018 0.96476,-4.41138 4.41138,-0.96476 -1.37018,-4.30277 3.33801,-3.04128 -3.33801,-3.0412 1.37018,-4.30277 -4.41138,-0.96484 -0.96476,-4.41137 -4.30277,1.37017 -3.04127,-3.338 -3.0412,3.338 -4.30277,-1.37017 -0.96484,4.41137 -4.41138,0.96484 1.37018,4.30277 z m 7.67803,-0.89804 c 0.0132,-0.69236 0.13727,-1.34163 0.37227,-1.94771 0.46669,-1.22451 1.31528,-2.16061 2.54588,-2.80827 l 0.8296,3.09603 c -0.46941,0.32448 -0.7833,0.75965 -0.94172,1.30547 -0.16174,0.53347 -0.14498,1.16473 0.0504,1.89393 0.21526,0.80335 0.57663,1.43514 1.08407,1.89527 0.49509,0.46344 1.10207,0.75121 1.82092,0.86326 0.70649,0.11537 1.49231,0.0571 2.35746,-0.17473 0.88987,-0.23844 1.6057,-0.58254 2.14749,-1.03238 0.5418,-0.44985 0.90214,-0.98354 1.08108,-1.60109 0.16327,-0.6266 0.14389,-1.31691 -0.0581,-2.07082 -0.2848,-1.0629 -0.7781,-1.79169 -1.47998,-2.18647 -0.70519,-0.40714 -1.49461,-0.55997 -2.36815,-0.45837 l 0.81471,3.04038 -2.07636,0.55636 -1.55979,-5.8212 7.24867,-1.94225 0.68554,2.55837 -2.00321,0.75533 0.0199,0.0741 c 0.55487,0.14275 1.05832,0.36549 1.51035,0.66826 0.45203,0.30277 0.83411,0.69056 1.14623,1.16328 0.30881,0.46037 0.54436,0.99332 0.70663,1.59892 0.29805,1.11233 0.29275,2.18014 -0.0159,3.20336 -0.32435,1.01418 -0.91468,1.90087 -1.77096,2.66018 -0.85627,0.7593 -1.94562,1.31615 -3.26806,1.67049 -1.3348,0.35766 -2.58465,0.41439 -3.74955,0.17017 -1.16822,-0.25658 -2.17364,-0.79523 -3.01615,-1.61597 -0.84581,-0.83309 -1.4525,-1.9356 -1.82009,-3.30748 -0.20864,-0.77864 -0.30633,-1.51408 -0.29314,-2.20644 z"
       transform="matrix(0,6.9086555,-6.9086555,0,1429.6601,-1155.541)" />
  </g>
</svg>
