<?xml version="1.0" encoding="UTF-8" standalone="no"?>
<!-- Created with Inkscape (http://www.inkscape.org/) -->

<svg
   width="400mm"
   height="97.795197mm"
   viewBox="0 0 400 97.795197"
   version="1.1"
   id="svg1"
   xmlns="http://www.w3.org/2000/svg"
   xmlns:svg="http://www.w3.org/2000/svg">
  <defs
     id="defs1" />
  <g
     id="layer1"
     transform="translate(-25.000004,-176.1024)">
    <g
       id="g1"
       transform="matrix(0.52959728,0,0,0.52959728,106.30961,136.05518)"
       style="fill:#0000ff;fill-opacity:0.6">
      <g
         id="g4">
        <path
           style="display:inline;fill:#87adfd;fill-opacity:1;fill-rule:nonzero;stroke-width:1"
           id="path13"
           d="m 205.79753,136.80539 -12.77642,6.30554 -2.0488,14.09963 -9.94506,-10.20259 -14.04265,2.40851 6.63004,-12.61109 -6.63004,-12.61109 14.04265,2.40851 9.94506,-10.20259 2.0488,14.09963 z"
           transform="matrix(1.0611572,0,0,1.0611572,-330.72792,-47.900677)" />
        <path
           style="font-size:176.389px;line-height:1.25;font-family:Asimovian;-inkscape-font-specification:Asimovian;text-align:center;text-anchor:middle;fill:#87adfd;fill-opacity:1;stroke-width:0.264583"
           d="m -133.95171,260.27779 v -19.22641 q 7.76112,-0.52916 15.16945,-2.82222 7.40834,-2.29306 13.40557,-6.87917 6.173614,-4.40973 9.701394,-11.81806 3.70417,-7.40834 3.70417,-18.34446 v -8.64306 q -20.108344,0 -32.279184,-4.23334 -12.17085,-4.23334 -18.52085,-12.17084 -6.35,-7.93751 -8.64306,-19.40279 -2.11667,-11.64168 -2.11667,-26.10557 h 81.315332 v 68.9681 q 0,16.22779 -5.468059,27.51668 -5.29167,11.2889 -14.287509,18.34446 -8.995844,7.23195 -19.931954,10.58334 -10.93612,3.52778 -22.04863,4.23334 z m 1.23472,-111.65425 q 0,13.58196 9.17223,19.93196 9.17223,6.35001 31.573634,6.35001 v -26.28197 z m 81.315362,76.37644 v -44.97919 q 0,-15.34585 5.115282,-25.04724 5.29167,-9.7014 13.934731,-14.99307 8.643061,-5.46806 19.050013,-7.76111 10.5833404,-2.46945 20.9902918,-3.17501 v 18.16807 q -7.23194928,0.52917 -14.2875096,1.94028 -7.0555602,1.23472 -12.8763972,4.40973 -5.644449,3.175 -9.172229,9.525 -3.351391,6.35001 -3.351391,17.10974 v 44.8028 z M 91.826175,180.02079 v 44.97919 H 11.569176 q -1.234723,-17.28612 1.763891,-28.57501 3.175002,-11.2889 9.172228,-17.99168 6.173615,-6.70279 13.934731,-9.87779 7.761117,-3.35139 16.0514,-4.40972 8.290284,-1.05834 15.698622,-1.05834 -3.880558,-6.17361 -10.054174,-9.17223 -6.173615,-3.175 -13.052786,-4.23333 -6.702782,-1.05834 -12.52362,-1.23472 H 16.155291 v -18.16807 h 17.286122 q 10.406952,0.17639 20.637514,2.29305 10.406952,2.11667 18.873624,7.58473 8.466672,5.29167 13.581954,14.99307 5.29167,9.70139 5.29167,24.87085 z m -60.854208,26.98752 h 41.451417 v -26.63474 q -22.048626,0.17638 -31.750021,5.82083 -9.701396,5.64445 -9.701396,20.81391 z m 135.819573,17.99167 q -10.23056,-0.17638 -20.63752,-2.29305 -10.40695,-2.11667 -18.87362,-7.40834 -8.46667,-5.46806 -13.75834,-15.16946 -5.11528,-9.70139 -5.11528,-24.87085 v -44.62641 h 61.55976 V 83.888779 h 19.75557 V 224.99998 Z m 0.88194,-18.16806 h 2.29306 v -58.20838 h -42.15697 v 26.45836 q 0,10.58334 3.88056,16.93334 4.05694,6.17362 10.23056,9.34862 6.17361,2.99861 13.05278,4.23333 6.87918,1.05834 12.70001,1.23473 z m 46.91937,-95.60285 V 92.002673 h 19.2264 v 19.226397 z m -0.17639,113.77091 v -94.36811 h 19.75557 v 94.36811 z m 91.54603,0.17639 q -5.82084,0 -12.52362,-2.29305 -6.52639,-2.29306 -12.52362,-7.76112 -5.82084,-5.64445 -9.7014,-15.16945 -3.70416,-9.7014 -3.70416,-24.1653 v -26.98752 h -17.46252 v -18.16806 h 17.46252 v -29.10419 h 19.40279 v 29.10419 h 19.05001 v 18.16806 h -19.05001 v 26.98752 q 0.17639,10.40695 2.29305,16.40418 2.11667,5.82084 5.11528,8.81945 2.99862,2.82222 6.17362,3.70417 3.175,0.88194 5.46806,1.23472 z m 31.39731,-94.5445 v 35.10141 q 0,13.40556 3.3514,21.69585 3.35139,8.11389 8.99583,12.34723 5.82084,4.23333 13.22918,5.82083 7.58473,1.41112 15.87501,1.41112 v -76.37644 h 19.75557 v 94.36811 h -19.05001 q -11.99446,0 -23.28335,-2.46944 -11.11251,-2.46945 -20.10835,-8.81945 -8.81945,-6.35001 -14.11112,-17.99168 -5.11528,-11.64168 -5.11528,-29.80974 v -35.2778 z m 140.75858,94.36811 q -10.23056,-0.17638 -20.63751,-2.29305 -10.40695,-2.11667 -18.87363,-7.40834 -8.46667,-5.46806 -13.75834,-15.16946 -5.11528,-9.70139 -5.11528,-24.87085 v -44.62641 h 61.55976 V 83.888779 h 19.75557 V 224.99998 Z m 0.88195,-18.16806 h 2.29305 v -58.20838 h -42.15697 v 26.45836 q 0,10.58334 3.88056,16.93334 4.05695,6.17362 10.23056,9.34862 6.17362,2.99861 13.05279,4.23333 6.87917,1.05834 12.70001,1.23473 z m 42.15683,-31.22086 v -44.97919 h 80.257 q 1.23472,17.28612 -1.94028,28.57501 -2.99862,11.2889 -9.17223,17.99168 -5.99723,6.70279 -13.75834,10.05418 -7.76112,3.175 -16.0514,4.23333 -8.29029,1.05834 -15.69862,1.05834 3.88055,6.17361 10.05417,9.34861 6.17361,2.99862 12.8764,4.05695 6.87917,1.05834 12.7,1.23472 h 16.40418 v 18.16807 h -17.28612 q -10.23056,-0.17639 -20.63751,-2.29305 -10.40696,-2.11667 -18.87363,-7.40834 -8.46667,-5.46806 -13.75834,-15.16946 -5.11528,-9.70139 -5.11528,-24.87085 z m 60.85421,-26.98752 h -41.45142 v 26.63474 q 22.04862,-0.17638 31.75002,-5.82083 9.7014,-5.64445 9.7014,-20.81391 z"
           id="text1"
           aria-label="graditude" />
      </g>
    </g>
  </g>
</svg>
