<?xml version="1.0" encoding="UTF-8" standalone="no"?>
<!-- Created with Inkscape (http://www.inkscape.org/) -->

<svg
   width="334.65549mm"
   height="52.127552mm"
   viewBox="0 0 334.65549 52.127552"
   version="1.1"
   id="svg1"
   xmlns="http://www.w3.org/2000/svg"
   xmlns:svg="http://www.w3.org/2000/svg">
  <defs
     id="defs1" />
  <g
     id="layer1"
     style="display:none"
     transform="translate(-57.672254,-198.93623)">
    <text
       xml:space="preserve"
       style="font-style:normal;font-variant:normal;font-weight:normal;font-stretch:normal;font-size:72px;line-height:1.25;font-family:'DM Sans';-inkscape-font-specification:'DM Sans, @opsz=40';font-variant-ligatures:none;font-variant-caps:normal;font-variant-numeric:normal;font-variant-east-asian:normal;font-variation-settings:'opsz' 40;text-align:center;text-anchor:middle;stroke-width:0.264583"
       x="311.32788"
       y="224.99997"
       id="text1"><tspan
         id="tspan1"
         style="font-style:normal;font-variant:normal;font-weight:900;font-stretch:normal;font-size:72px;font-family:'DM Sans';-inkscape-font-specification:'DM Sans Heavy';font-variant-ligatures:none;font-variant-caps:normal;font-variant-numeric:normal;font-variant-east-asian:normal;stroke-width:0.264583"
         x="311.32788"
         y="224.99997">Graditude</tspan></text>
    <path
       style="display:inline;fill:#1a1a1a;stroke-width:1"
       id="path2-5"
       d="m 199.76398,159.91198 2.81205,3.27904 4.0138,-1.59662 0.9661,4.21028 4.29603,0.45156 -1.10117,4.17699 3.59409,2.3963 -2.91618,3.1868 2.0688,3.79208 -4.06313,1.46655 0.0695,4.31914 -4.27926,-0.58966 -1.94561,3.85673 -3.51507,-2.51079 -3.51507,2.51079 -1.94562,-3.85673 -4.27926,0.58966 0.0696,-4.31914 -4.06313,-1.46655 2.06879,-3.79208 -2.91618,-3.1868 3.59409,-2.3963 -1.10117,-4.17699 4.29603,-0.45157 0.9661,-4.21027 4.0138,1.59662 z"
       transform="matrix(0,0.88608406,-0.88608406,0,440.91936,73.863675)" />
    <path
       style="display:inline;fill:#1a1a1a;stroke-width:1"
       id="path2-5-9"
       d="m 199.76398,159.91198 2.81205,3.27904 4.0138,-1.59662 0.9661,4.21028 4.29603,0.45156 -1.10117,4.17699 3.59409,2.3963 -2.91618,3.1868 2.0688,3.79208 -4.06313,1.46655 0.0695,4.31914 -4.27926,-0.58966 -1.94561,3.85673 -3.51507,-2.51079 -3.51507,2.51079 -1.94562,-3.85673 -4.27926,0.58966 0.0696,-4.31914 -4.06313,-1.46655 2.06879,-3.79208 -2.91618,-3.1868 3.59409,-2.3963 -1.10117,-4.17699 4.29603,-0.45157 0.9661,-4.21027 4.0138,1.59662 z"
       transform="matrix(0,0.88608406,-0.88608406,0,492.448,73.863675)" />
  </g>
  <g
     id="g4"
     style="display:inline"
     transform="translate(-57.672254,-198.93623)">
    <path
       id="text3"
       style="font-weight:900;font-size:72px;line-height:1.25;font-family:'DM Sans';-inkscape-font-specification:'DM Sans Heavy';font-variant-ligatures:none;font-variation-settings:'opsz' 40;text-align:center;text-anchor:middle;fill:#ffffff;stroke-width:0.264583"
       d="m 83.232455,198.93622 c -5.328,0 -9.91213,1.12777 -13.75213,3.38377 -3.792,2.256 -6.71996,5.37615 -8.78396,9.36015 -2.016,3.984 -3.02411,8.56813 -3.02411,13.75213 0,5.136 0.95993,9.62378 2.87993,13.46378 1.92,3.84 4.55993,6.83997 7.91993,8.99997 3.408,2.112 7.27206,3.16776 11.59206,3.16776 2.352,0 4.51222,-0.33569 6.48022,-1.00769 2.016,-0.672 3.79184,-1.6801 5.32784,-3.0241 1.536,-1.344 2.83214,-2.952 3.88814,-4.824 h 0.28784 l 0.7922,7.99228 h 9.935825 V 222.04798 H 84.168315 v 8.06411 h 11.80807 c -0.48,3.264 -1.79997,5.97594 -3.95997,8.13594 -2.112,2.16 -5.23215,3.24011 -9.36015,3.24011 -2.928,0 -5.44775,-0.59989 -7.55975,-1.79989 -2.064,-1.248 -3.64816,-3.07202 -4.75216,-5.47202 -1.104,-2.4 -1.65623,-5.32796 -1.65623,-8.78396 0,-3.36 0.55223,-6.26413 1.65623,-8.71213 1.104,-2.496 2.73582,-4.41637 4.89582,-5.76037 2.16,-1.392 4.79993,-2.08773 7.91993,-2.08773 2.832,0 5.13624,0.55223 6.91224,1.65623 1.824,1.104 3.09579,2.66382 3.81579,4.67982 H 105.9122 c -1.15199,-5.088 -3.71992,-9.07224 -7.703915,-11.95224 -3.936,-2.88 -8.92783,-4.31963 -14.97583,-4.31963 z m 147.311945,0 c -1.92,0 -3.50416,0.57606 -4.75216,1.72806 -1.2,1.104 -1.79989,2.49597 -1.79989,4.17597 0,1.68 0.59989,3.0958 1.79989,4.2478 1.248,1.104 2.83216,1.65571 4.75216,1.65571 1.968,0 3.55165,-0.55171 4.75165,-1.65571 1.2,-1.152 1.79989,-2.5678 1.79989,-4.2478 0,-1.68 -0.59989,-3.07197 -1.79989,-4.17597 -1.2,-1.152 -2.78365,-1.72806 -4.75165,-1.72806 z m -23.47247,0.86403 v 18.93579 c -1.2,-1.44 -2.80799,-2.63978 -4.82399,-3.59978 -2.016,-1.008 -4.34356,-1.51205 -6.98356,-1.51205 -3.36,0 -6.3123,0.81591 -8.8563,2.44791 -2.544,1.584 -4.51204,3.79189 -5.90404,6.62389 -1.392,2.784 -2.08772,5.99999 -2.08772,9.64799 0,3.648 0.69572,6.88782 2.08772,9.71982 1.392,2.784 3.33621,4.9924 5.83221,6.6244 2.496,1.584 5.42396,2.37556 8.78396,2.37556 2.016,0 3.81618,-0.28751 5.40018,-0.86351 1.632,-0.576 3.07164,-1.36808 4.31964,-2.37608 1.248,-1.056 2.30428,-2.30396 3.16827,-3.74396 h 0.28785 l 0.50384,6.12004 h 9.07232 v -50.40002 z m 40.53603,4.67981 -1.2237,10.00818 h -6.04821 v 8.78396 h 6.04821 v 13.67978 c 0,3.312 0.55171,5.9281 1.65571,7.8481 1.152,1.92 2.71234,3.31198 4.68034,4.17598 2.016,0.816 4.34407,1.22421 6.98407,1.22421 h 6.62388 v -9.07231 h -4.75217 c -1.584,0 -2.71177,-0.28803 -3.38378,-0.86403 -0.672,-0.624 -1.00819,-1.67977 -1.00819,-3.16777 V 223.2722 h 9.21597 v -8.78396 h -9.14414 v -10.00818 z m -111.16789,9.14415 c -1.968,0 -3.76767,0.21602 -5.39967,0.64802 -1.632,0.384 -3.09598,1.19991 -4.39198,2.44791 -1.248,1.248 -2.37629,3.11968 -3.38429,5.61568 h -0.28784 l -0.93586,-7.84758 h -9.14415 v 35.71203 h 10.79986 v -15.55202 c 0,-1.776 0.21602,-3.26433 0.64802,-4.46433 0.432,-1.248 1.05624,-2.23176 1.87224,-2.95176 0.864,-0.768 1.89594,-1.32023 3.09594,-1.65623 1.248,-0.336 2.63997,-0.50384 4.17597,-0.50384 h 2.95176 z m 20.52019,0 c -3.216,0 -6.07195,0.55171 -8.56795,1.65571 -2.448,1.104 -4.41603,2.63999 -5.90403,4.60799 -1.488,1.92 -2.35209,4.19989 -2.59209,6.83989 h 10.36784 c 0.288,-1.536 1.03242,-2.66377 2.23242,-3.38377 1.248,-0.72 2.71198,-1.08004 4.39198,-1.08004 1.536,0 2.75961,0.2642 3.67161,0.7922 0.95999,0.48 1.65625,1.24774 2.08824,2.30374 0.432,1.008 0.64803,2.32796 0.64803,3.95996 h -8.78397 c -3.59999,0 -6.55231,0.48022 -8.85631,1.44022 -2.304,0.96 -4.00783,2.27997 -5.11183,3.95997 -1.056,1.632 -1.58388,3.52802 -1.58388,5.68802 0,1.968 0.4077,3.76767 1.22369,5.39967 0.86401,1.584 2.20832,2.85631 4.03233,3.81631 1.824,0.96 4.15206,1.4397 6.98406,1.4397 1.296,0 2.54395,-0.14401 3.74396,-0.43201 1.2,-0.24 2.30395,-0.59952 3.31194,-1.07952 1.05601,-0.528 2.03976,-1.17607 2.95175,-1.94407 0.91201,-0.816 1.75227,-1.7521 2.52026,-2.8081 h 0.28785 l 1.15186,5.40019 h 8.92815 v -21.96042 c 0,-3.168 -0.72008,-5.83176 -2.16008,-7.99176 -1.392,-2.208 -3.38386,-3.86417 -5.97586,-4.96817 -2.54401,-1.104 -5.54397,-1.65571 -8.99997,-1.65571 z m 216.9356,0 c -3.792,0 -7.10383,0.83974 -9.93583,2.51974 -2.832,1.632 -5.03989,3.88806 -6.62389,6.76806 -1.58401,2.88 -2.37609,6.168 -2.37609,9.864 0,3.6 0.79208,6.79216 2.37609,9.57616 1.632,2.736 3.86372,4.87188 6.69571,6.40788 2.88,1.536 6.19234,2.30373 9.93634,2.30373 2.832,0 5.42376,-0.55171 7.77576,-1.65571 2.4,-1.104 4.41621,-2.59181 6.04821,-4.46381 1.632,-1.872 2.7836,-3.96022 3.4556,-6.26422 h -11.01587 c -0.576,1.056 -1.41574,1.92009 -2.51974,2.59209 -1.056,0.672 -2.35213,1.00769 -3.88813,1.00769 -1.632,0 -3.07215,-0.33569 -4.32015,-1.00769 -1.248,-0.72 -2.20793,-1.70427 -2.87993,-2.95227 -0.51987,-1.0026 -0.83316,-2.10826 -0.95085,-3.31194 h 26.51105 c 0.048,-0.624 0.0718,-1.22389 0.0718,-1.79989 0.048,-0.624 0.0718,-1.17623 0.0718,-1.65623 0,-3.504 -0.79157,-6.59981 -2.37557,-9.28781 -1.584,-2.688 -3.76805,-4.80005 -6.55205,-6.33605 -2.736,-1.536 -5.90433,-2.30373 -9.50433,-2.30373 z m -148.82348,0.86403 v 35.71203 h 10.79986 v -35.71203 z m 44.27947,0 v 19.79982 c 0,3.6 0.52839,6.64815 1.5844,9.14415 1.104,2.496 2.68765,4.39202 4.75165,5.68802 2.064,1.296 4.60809,1.94355 7.63209,1.94355 3.024,0 5.51992,-0.57554 7.48791,-1.72754 1.96801,-1.152 3.50399,-2.78434 4.60798,-4.89634 h 0.28837 l 0.93585,5.76037 h 9.14414 v -35.71203 h -10.80037 v 18.3596 c 0,1.92 -0.33569,3.57617 -1.00769,4.96817 -0.672,1.344 -1.6081,2.37594 -2.8081,3.09594 -1.152,0.72 -2.4958,1.08004 -4.0318,1.08004 -2.496,0 -4.29618,-0.74391 -5.40018,-2.23191 -1.10399,-1.536 -1.65622,-3.69622 -1.65622,-6.48022 v -18.79162 z m -73.45031,6.98355 2.23656,2.45463 3.16363,-1.00769 0.70952,3.24373 3.24374,0.70952 -1.0077,3.16363 2.45464,2.23656 -2.45464,2.23603 1.0077,3.16364 -3.24374,0.70951 -0.70952,3.24373 -3.16363,-1.00769 -2.23656,2.45463 -2.23604,-2.45463 -3.16363,1.00769 -0.70951,-3.24373 -3.24373,-0.70951 1.00769,-3.16364 -2.45463,-2.23603 2.45463,-2.23656 -1.00769,-3.16363 3.24373,-0.70952 0.70951,-3.24373 3.16363,1.00769 z m 178.06665,0.72037 c 2.016,0 3.69601,0.59989 5.04001,1.79989 1.392,1.2 2.15973,2.75982 2.30373,4.67982 h -15.39234 c 0.17934,-0.83405 0.43793,-1.57795 0.77618,-2.23191 0.768,-1.44 1.7761,-2.49576 3.0241,-3.16776 1.296,-0.72 2.71232,-1.08004 4.24832,-1.08004 z m -218.15981,13.46378 h 6.98407 c -0.192,1.008 -0.48003,1.9441 -0.86403,2.8081 -0.384,0.864 -0.9124,1.63173 -1.5844,2.30373 -0.624,0.624 -1.3679,1.12805 -2.2319,1.51205 -0.864,0.384 -1.89594,0.5762 -3.09594,0.5762 -0.864,0 -1.65608,-0.12019 -2.37608,-0.36019 -0.72,-0.288 -1.27171,-0.67187 -1.65571,-1.15187 -0.384,-0.528 -0.57619,-1.17606 -0.57619,-1.94406 0,-0.768 0.19219,-1.41607 0.57619,-1.94407 0.384,-0.576 0.96006,-1.00805 1.72806,-1.29605 0.816,-0.336 1.84793,-0.50384 3.09593,-0.50384 z m 183.3113,-35.85569 v 18.93579 c -1.2,-1.44 -2.80799,-2.63978 -4.82399,-3.59978 -2.016,-1.008 -4.34356,-1.51205 -6.98356,-1.51205 -3.36,0 -6.3123,0.81591 -8.8563,2.44791 -2.544,1.584 -4.51204,3.79189 -5.90404,6.62389 -1.392,2.784 -2.08772,5.99999 -2.08772,9.64799 0,3.648 0.69572,6.88782 2.08772,9.71982 1.392,2.784 3.33621,4.9924 5.83221,6.6244 2.496,1.584 5.42396,2.37556 8.78396,2.37556 2.016,0 3.81618,-0.28751 5.40018,-0.86351 1.632,-0.576 3.07164,-1.36808 4.31964,-2.37608 1.248,-1.056 2.30428,-2.30396 3.16828,-3.74396 h 0.28784 l 0.50384,6.12004 h 9.07232 v -50.40002 z m -11.17038,21.67154 2.23656,2.45463 3.16363,-1.00769 0.70952,3.24373 3.24373,0.70952 -1.00769,3.16363 2.45463,2.23656 -2.45463,2.23603 1.00769,3.16364 -3.24373,0.70951 -0.70952,3.24373 -3.16363,-1.00769 -2.23656,2.45463 -2.23604,-2.45463 -3.16363,1.00769 -0.70951,-3.24373 -3.24374,-0.70951 1.0077,-3.16364 -2.45463,-2.23603 2.45463,-2.23656 -1.0077,-3.16363 3.24374,-0.70952 0.70951,-3.24373 3.16363,1.00769 z" />
  </g>
  <g
     id="g7"
     style="display:none"
     transform="translate(-57.672254,-198.93623)">
    <path
       style="font-weight:900;font-size:72px;line-height:1.25;font-family:'DM Sans';-inkscape-font-specification:'DM Sans Heavy';font-variant-ligatures:none;font-variation-settings:'opsz' 40;text-align:center;text-anchor:middle;stroke-width:0.264583"
       d="m 166.93205,225.86397 c -4.32,0 -8.184,-1.056 -11.592,-3.168 -3.36,-2.16 -6,-5.16 -7.92,-9 -1.92,-3.84 -2.88,-8.328 -2.88,-13.464 0,-5.184 1.008,-9.768 3.024,-13.752 2.064,-3.984 4.992,-7.104 8.784,-9.36 3.84,-2.256 8.424,-3.384 13.752,-3.384 6.048,0 11.04,1.44 14.976,4.32 3.984,2.88 6.552,6.864 7.704,11.952 h -12.024 c -0.72,-2.016 -1.992,-3.576 -3.816,-4.68 -1.776,-1.104 -4.08,-1.656 -6.912,-1.656 -3.12,0 -5.76,0.696 -7.92,2.088 -2.16,1.344 -3.792,3.264 -4.896,5.76 -1.104,2.448 -1.656,5.352 -1.656,8.712 0,3.456 0.552,6.384 1.656,8.784 1.104,2.4 2.688,4.224 4.752,5.472 2.112,1.2 4.632,1.8 7.56,1.8 4.128,0 7.248,-1.08 9.36,-3.24 2.16,-2.16 3.48,-4.872 3.96,-8.136 h -11.808 v -8.064 h 22.608 v 28.152 h -9.936 l -0.792,-7.992 h -0.288 c -1.056,1.872 -2.352,3.48 -3.888,4.824 -1.536,1.344 -3.312,2.352 -5.328,3.024 -1.968,0.672 -4.128,1.008 -6.48,1.008 z m 32.83194,-0.864 v -35.712 h 9.144 l 0.936,7.848 h 0.288 c 1.008,-2.496 2.136,-4.368 3.384,-5.616 1.296,-1.248 2.76,-2.064 4.392,-2.448 1.632,-0.432 3.432,-0.648 5.4,-0.648 v 11.448 h -2.952 c -1.536,0 -2.928,0.168 -4.176,0.504 -1.2,0.336 -2.232,0.888 -3.096,1.656 -0.816,0.72 -1.44,1.704 -1.872,2.952 -0.432,1.2 -0.648,2.688 -0.648,4.464 v 15.552 z m 38.30398,0.864 c -2.832,0 -5.16,-0.48 -6.984,-1.44 -1.824,-0.96 -3.168,-2.232 -4.032,-3.816 -0.816,-1.632 -1.224,-3.432 -1.224,-5.4 0,-2.16 0.528,-4.056 1.584,-5.688 1.104,-1.68 2.808,-3 5.112,-3.96 2.304,-0.96 5.256,-1.44 8.856,-1.44 h 8.784 c 0,-1.632 -0.216,-2.952 -0.648,-3.96 -0.432,-1.056 -1.128,-1.824 -2.088,-2.304 -0.912,-0.528 -2.136,-0.792 -3.672,-0.792 -1.68,0 -3.144,0.36 -4.392,1.08 -1.2,0.72 -1.944,1.848 -2.232,3.384 h -10.368 c 0.24,-2.64 1.104,-4.92 2.592,-6.84 1.488,-1.968 3.456,-3.504 5.904,-4.608 2.496,-1.104 5.352,-1.656 8.568,-1.656 3.456,0 6.456,0.552 9,1.656 2.592,1.104 4.584,2.76 5.976,4.968 1.44,2.16 2.16,4.824 2.16,7.992 v 21.96 h -8.928 l -1.152,-5.4 h -0.288 c -0.768,1.056 -1.608,1.992 -2.52,2.808 -0.912,0.768 -1.896,1.416 -2.952,1.944 -1.008,0.48 -2.112,0.84 -3.312,1.08 -1.2,0.288 -2.448,0.432 -3.744,0.432 z m 3.816,-8.208 c 1.2,0 2.232,-0.192 3.096,-0.576 0.864,-0.384 1.608,-0.888 2.232,-1.512 0.672,-0.672 1.2,-1.44 1.584,-2.304 0.384,-0.864 0.672,-1.8 0.864,-2.808 v 0 h -6.984 c -1.248,0 -2.28,0.168 -3.096,0.504 -0.768,0.288 -1.344,0.72 -1.728,1.296 -0.384,0.528 -0.576,1.176 -0.576,1.944 0,0.768 0.192,1.416 0.576,1.944 0.384,0.48 0.936,0.864 1.656,1.152 0.72,0.24 1.512,0.36 2.376,0.36 z m 40.10396,8.208 c -3.36,0 -6.288,-0.792 -8.784,-2.376 -2.496,-1.632 -4.44,-3.84 -5.832,-6.624 -1.392,-2.832 -2.088,-6.072 -2.088,-9.72 0,-3.648 0.696,-6.864 2.088,-9.648 1.392,-2.832 3.36,-5.04 5.904,-6.624 2.544,-1.632 5.496,-2.448 8.856,-2.448 2.64,0 4.968,0.504 6.984,1.512 2.016,0.96 3.624,2.16 4.824,3.6 v -18.936 h 10.8 v 50.4 h -9.072 l -0.504,-6.12 h -0.288 c -0.864,1.44 -1.92,2.688 -3.168,3.744 -1.248,1.008 -2.688,1.8 -4.32,2.376 -1.584,0.576 -3.384,0.864 -5.4,0.864 z m 29.952,-0.864 v -35.712 h 10.8 v 35.712 z m 5.472,-39.456 c -1.92,0 -3.504,-0.552 -4.752,-1.656 -1.2,-1.152 -1.8,-2.568 -1.8,-4.248 0,-1.68 0.6,-3.072 1.8,-4.176 1.248,-1.152 2.832,-1.728 4.752,-1.728 1.968,0 3.552,0.576 4.752,1.728 1.2,1.104 1.8,2.496 1.8,4.176 0,1.68 -0.6,3.096 -1.8,4.248 -1.2,1.104 -2.784,1.656 -4.752,1.656 z m 29.15994,39.456 c -2.64,0 -4.968,-0.408 -6.984,-1.224 -1.968,-0.864 -3.528,-2.256 -4.68,-4.176 -1.104,-1.92 -1.656,-4.536 -1.656,-7.848 v -13.68 h -6.048 v -8.784 h 6.048 l 1.224,-10.008 h 9.648 v 10.008 h 9.144 v 8.784 h -9.216 v 13.824 c 0,1.488 0.336,2.544 1.008,3.168 0.672,0.576 1.8,0.864 3.384,0.864 h 4.752 v 9.072 z m 23.61594,0.864 c -3.024,0 -5.568,-0.648 -7.632,-1.944 -2.064,-1.296 -3.648,-3.192 -4.752,-5.688 -1.056,-2.496 -1.584,-5.544 -1.584,-9.144 v -19.8 h 10.728 v 18.792 c 0,2.784 0.552,4.944 1.656,6.48 1.104,1.488 2.904,2.232 5.4,2.232 1.536,0 2.88,-0.36 4.032,-1.08 1.2,-0.72 2.136,-1.752 2.808,-3.096 0.672,-1.392 1.008,-3.048 1.008,-4.968 v -18.36 h 10.8 v 35.712 h -9.144 l -0.936,-5.76 h -0.288 c -1.104,2.112 -2.64,3.744 -4.608,4.896 -1.968,1.152 -4.464,1.728 -7.488,1.728 z m 43.84796,0 c -3.36,0 -6.288,-0.792 -8.784,-2.376 -2.496,-1.632 -4.44,-3.84 -5.832,-6.624 -1.392,-2.832 -2.088,-6.072 -2.088,-9.72 0,-3.648 0.696,-6.864 2.088,-9.648 1.392,-2.832 3.36,-5.04 5.904,-6.624 2.544,-1.632 5.496,-2.448 8.856,-2.448 2.64,0 4.968,0.504 6.984,1.512 2.016,0.96 3.624,2.16 4.824,3.6 v -18.936 h 10.8 v 50.4 h -9.072 l -0.504,-6.12 h -0.288 c -0.864,1.44 -1.92,2.688 -3.168,3.744 -1.248,1.008 -2.688,1.8 -4.32,2.376 -1.584,0.576 -3.384,0.864 -5.4,0.864 z m 3.24,-8.784 c 1.824,0 3.408,-0.432 4.752,-1.296 1.344,-0.864 2.376,-2.04 3.096,-3.528 0.768,-1.488 1.152,-3.216 1.152,-5.184 0,-1.968 -0.384,-3.696 -1.152,-5.184 -0.72,-1.488 -1.776,-2.64 -3.168,-3.456 -1.344,-0.864 -2.928,-1.296 -4.752,-1.296 -1.728,0 -3.288,0.432 -4.68,1.296 -1.344,0.864 -2.4,2.04 -3.168,3.528 -0.72,1.488 -1.08,3.192 -1.08,5.112 0,1.968 0.36,3.696 1.08,5.184 0.768,1.488 1.824,2.664 3.168,3.528 1.392,0.864 2.976,1.296 4.752,1.296 z m 43.56,8.784 c -3.744,0 -7.056,-0.768 -9.936,-2.304 -2.832,-1.536 -5.064,-3.672 -6.696,-6.408 -1.584,-2.784 -2.376,-5.976 -2.376,-9.576 0,-3.696 0.792,-6.984 2.376,-9.864 1.584,-2.88 3.792,-5.136 6.624,-6.768 2.832,-1.68 6.144,-2.52 9.936,-2.52 3.6,0 6.768,0.768 9.504,2.304 2.784,1.536 4.968,3.648 6.552,6.336 1.584,2.688 2.376,5.784 2.376,9.288 0,0.48 -0.024,1.032 -0.072,1.656 0,0.576 -0.024,1.176 -0.072,1.8 h -29.592 v -6.336 h 18.72 c -0.144,-1.92 -0.912,-3.48 -2.304,-4.68 -1.344,-1.2 -3.024,-1.8 -5.04,-1.8 -1.536,0 -2.952,0.36 -4.248,1.08 -1.248,0.672 -2.256,1.728 -3.024,3.168 -0.72,1.392 -1.08,3.192 -1.08,5.4 v 2.088 c 0,1.632 0.336,3.096 1.008,4.392 0.672,1.248 1.632,2.232 2.88,2.952 1.248,0.672 2.688,1.008 4.32,1.008 1.536,0 2.832,-0.336 3.888,-1.008 1.104,-0.672 1.944,-1.536 2.52,-2.592 h 11.016 c -0.672,2.304 -1.824,4.392 -3.456,6.264 -1.632,1.872 -3.648,3.36 -6.048,4.464 -2.352,1.104 -4.944,1.656 -7.776,1.656 z"
       id="path5"
       aria-label="Graditude" />
    <path
       style="display:inline;fill:#1a1a1a;stroke-width:1"
       id="path6"
       d="m 199.76398,159.91198 2.81205,3.27904 4.0138,-1.59662 0.9661,4.21028 4.29603,0.45156 -1.10117,4.17699 3.59409,2.3963 -2.91618,3.1868 2.0688,3.79208 -4.06313,1.46655 0.0695,4.31914 -4.27926,-0.58966 -1.94561,3.85673 -3.51507,-2.51079 -3.51507,2.51079 -1.94562,-3.85673 -4.27926,0.58966 0.0696,-4.31914 -4.06313,-1.46655 2.06879,-3.79208 -2.91618,-3.1868 3.59409,-2.3963 -1.10117,-4.17699 4.29603,-0.45157 0.9661,-4.21027 4.0138,1.59662 z"
       transform="matrix(0,0.88608406,-0.88608406,0,492.448,73.863675)" />
    <path
       style="display:inline;fill:#ffffff;stroke-width:1"
       id="path7"
       d="m 199.76398,159.91198 3.04122,3.33798 4.30278,-1.37017 0.96478,4.4114 4.4114,0.96479 -1.37017,4.30277 3.33799,3.04123 -3.33799,3.04122 1.37017,4.30278 -4.4114,0.96478 -0.96478,4.4114 -4.30278,-1.37017 -3.04122,3.33799 -3.04123,-3.33799 -4.30277,1.37017 -0.96479,-4.4114 -4.41139,-0.96478 1.37016,-4.30278 -3.33798,-3.04122 3.33798,-3.04123 -1.37016,-4.30277 4.41139,-0.96479 0.96479,-4.4114 4.30277,1.37017 z"
       transform="matrix(0,0.73529413,-0.73529413,0,411.15183,60.186687)" />
  </g>
  <g
     id="g2"
     style="display:none"
     transform="translate(-57.672254,-198.93623)">
    <g
       id="g3">
      <path
         style="font-weight:900;font-size:72px;line-height:1.25;font-family:'DM Sans';-inkscape-font-specification:'DM Sans Heavy';font-variant-ligatures:none;font-variation-settings:'opsz' 40;text-align:center;text-anchor:middle;stroke-width:0.264583"
         d="m 166.93204,225.86398 c -4.32,0 -8.184,-1.056 -11.592,-3.168 -3.36,-2.16 -6,-5.16 -7.92,-9 -1.92,-3.84 -2.88,-8.328 -2.88,-13.464 0,-5.184 1.008,-9.768 3.024,-13.752 2.064,-3.984 4.992,-7.104 8.784,-9.36 3.84,-2.256 8.424,-3.384 13.752,-3.384 6.048,0 11.04,1.44 14.976,4.32 3.984,2.88 6.552,6.864 7.704,11.952 h -12.024 c -0.72,-2.016 -1.992,-3.576 -3.816,-4.68 -1.776,-1.104 -4.08,-1.656 -6.912,-1.656 -3.12,0 -5.76,0.696 -7.92,2.088 -2.16,1.344 -3.792,3.264 -4.896,5.76 -1.104,2.448 -1.656,5.352 -1.656,8.712 0,3.456 0.552,6.384 1.656,8.784 1.104,2.4 2.688,4.224 4.752,5.472 2.112,1.2 4.632,1.8 7.56,1.8 4.128,0 7.248,-1.08 9.36,-3.24 2.16,-2.16 3.48,-4.872 3.96,-8.136 h -11.808 v -8.064 h 22.608 v 28.152 h -9.936 l -0.792,-7.992 h -0.288 c -1.056,1.872 -2.352,3.48 -3.888,4.824 -1.536,1.344 -3.312,2.352 -5.328,3.024 -1.968,0.672 -4.128,1.008 -6.48,1.008 z m 32.83194,-0.864 v -35.712 h 9.144 l 0.936,7.848 h 0.288 c 1.008,-2.496 2.136,-4.368 3.384,-5.616 1.296,-1.248 2.76,-2.064 4.392,-2.448 1.632,-0.432 3.432,-0.648 5.4,-0.648 v 11.448 h -2.952 c -1.536,0 -2.928,0.168 -4.176,0.504 -1.2,0.336 -2.232,0.888 -3.096,1.656 -0.816,0.72 -1.44,1.704 -1.872,2.952 -0.432,1.2 -0.648,2.688 -0.648,4.464 v 15.552 z m 38.30398,0.864 c -2.832,0 -5.16,-0.48 -6.984,-1.44 -1.824,-0.96 -3.168,-2.232 -4.032,-3.816 -0.816,-1.632 -1.224,-3.432 -1.224,-5.4 0,-2.16 0.528,-4.056 1.584,-5.688 1.104,-1.68 2.808,-3 5.112,-3.96 2.304,-0.96 5.256,-1.44 8.856,-1.44 h 8.784 c 0,-1.632 -0.216,-2.952 -0.648,-3.96 -0.432,-1.056 -1.128,-1.824 -2.088,-2.304 -0.912,-0.528 -2.136,-0.792 -3.672,-0.792 -1.68,0 -3.144,0.36 -4.392,1.08 -1.2,0.72 -1.944,1.848 -2.232,3.384 h -10.368 c 0.24,-2.64 1.104,-4.92 2.592,-6.84 1.488,-1.968 3.456,-3.504 5.904,-4.608 2.496,-1.104 5.352,-1.656 8.568,-1.656 3.456,0 6.456,0.552 9,1.656 2.592,1.104 4.584,2.76 5.976,4.968 1.44,2.16 2.16,4.824 2.16,7.992 v 21.96 h -8.928 l -1.152,-5.4 h -0.288 c -0.768,1.056 -1.608,1.992 -2.52,2.808 -0.912,0.768 -1.896,1.416 -2.952,1.944 -1.008,0.48 -2.112,0.84 -3.312,1.08 -1.2,0.288 -2.448,0.432 -3.744,0.432 z m 3.816,-8.208 c 1.2,0 2.232,-0.192 3.096,-0.576 0.864,-0.384 1.608,-0.888 2.232,-1.512 0.672,-0.672 1.2,-1.44 1.584,-2.304 0.384,-0.864 0.672,-1.8 0.864,-2.808 v 0 h -6.984 c -1.248,0 -2.28,0.168 -3.096,0.504 -0.768,0.288 -1.344,0.72 -1.728,1.296 -0.384,0.528 -0.576,1.176 -0.576,1.944 0,0.768 0.192,1.416 0.576,1.944 0.384,0.48 0.936,0.864 1.656,1.152 0.72,0.24 1.512,0.36 2.376,0.36 z m 40.10396,8.208 c -3.36,0 -6.288,-0.792 -8.784,-2.376 -2.496,-1.632 -4.44,-3.84 -5.832,-6.624 -1.392,-2.832 -2.088,-6.072 -2.088,-9.72 0,-3.648 0.696,-6.864 2.088,-9.648 1.392,-2.832 3.36,-5.04 5.904,-6.624 2.544,-1.632 5.496,-2.448 8.856,-2.448 2.64,0 4.968,0.504 6.984,1.512 2.016,0.96 3.624,2.16 4.824,3.6 v -18.936 h 10.8 v 50.4 h -9.072 l -0.504,-6.12 h -0.288 c -0.864,1.44 -1.92,2.688 -3.168,3.744 -1.248,1.008 -2.688,1.8 -4.32,2.376 -1.584,0.576 -3.384,0.864 -5.4,0.864 z m 3.24,-8.784 c 1.824,0 3.408,-0.432 4.752,-1.296 1.344,-0.864 2.376,-2.04 3.096,-3.528 0.768,-1.488 1.152,-3.216 1.152,-5.184 0,-1.968 -0.384,-3.696 -1.152,-5.184 -0.72,-1.488 -1.776,-2.64 -3.168,-3.456 -1.344,-0.864 -2.928,-1.296 -4.752,-1.296 -1.728,0 -3.288,0.432 -4.68,1.296 -1.344,0.864 -2.4,2.04 -3.168,3.528 -0.72,1.488 -1.08,3.192 -1.08,5.112 0,1.968 0.36,3.696 1.08,5.184 0.768,1.488 1.824,2.664 3.168,3.528 1.392,0.864 2.976,1.296 4.752,1.296 z"
         id="text2"
         aria-label="Grad" />
    </g>
  </g>
</svg>
